<svg xmlns="http://www.w3.org/2000/svg" viewBox="0 0 1440 1080" width="1440" height="1080" fill="none">
<rect x="43.20" y="43.20" width="1353.60" height="993.60" rx="16" stroke="#f174a0" stroke-opacity="0.85" stroke-width="6"/>
<polygon points="0,0 183.60,0 0,183.60" fill="#ff90b6" fill-opacity="0.82"/>
<polygon points="1440,0 1256.40,0 1440,183.60" fill="#ffbad1" fill-opacity="0.82"/>
<polygon points="0,1080 0,896.40 183.60,1080" fill="#ffbad1" fill-opacity="0.82"/>
<polygon points="1440,1080 1256.40,1080 1440,896.40" fill="#ff90b6" fill-opacity="0.82"/>
<line x1="78.20" y1="216.00" x2="1361.80" y2="378.00" stroke="#fff5fd" stroke-width="7"/>
<polygon points="1361.80,378.00 1338.80,356.40 1350.80,410.40" fill="#fff5fd"/>
<line x1="1361.80" y1="702.00" x2="78.20" y2="864.00" stroke="#fff5fd" stroke-width="7"/>
<polygon points="78.20,864.00 101.20,842.40 89.20,896.40" fill="#fff5fd"/>
<path d="M 159.22 60.94 L 159.23 60.78 L 159.29 60.29 L 159.46 59.52 L 159.78 58.50 L 160.28 57.29 L 161.00 55.96 L 161.96 54.59 L 163.16 53.25 L 164.59 52.02 L 166.24 50.98 L 168.08 50.18 L 170.07 49.68 L 172.15 49.51 L 174.28 49.68 L 176.39 50.20 L 178.41 51.07 L 180.29 52.25 L 181.96 53.72 L 183.37 55.43 L 184.46 57.32 L 185.22 59.37 L 185.60 61.50 L 185.60 63.69 L 185.22 65.90 L 184.46 68.09 L 183.37 70.24 L 181.96 72.34 L 180.29 74.38 L 178.41 76.36 L 176.39 78.28 L 174.28 80.16 L 172.15 81.98 L 170.07 83.76 L 168.08 85.50 L 166.24 87.18 L 164.59 88.81 L 163.16 90.36 L 161.96 91.81 L 161.00 93.15 L 160.28 94.34 L 159.78 95.36 L 159.46 96.18 L 159.29 96.79 L 159.23 97.16 L 159.22 97.28 L 159.21 97.16 L 159.15 96.79 L 158.99 96.18 L 158.67 95.36 L 158.17 94.34 L 157.44 93.15 L 156.49 91.81 L 155.29 90.36 L 153.86 88.81 L 152.20 87.18 L 150.36 85.50 L 148.38 83.76 L 146.29 81.98 L 144.16 80.16 L 142.06 78.28 L 140.03 76.36 L 138.16 74.38 L 136.49 72.34 L 135.08 70.24 L 133.98 68.09 L 133.23 65.90 L 132.84 63.69 L 132.84 61.50 L 133.23 59.37 L 133.98 57.32 L 135.08 55.43 L 136.49 53.72 L 138.16 52.25 L 140.03 51.07 L 142.06 50.20 L 144.16 49.68 L 146.29 49.51 L 148.38 49.68 L 150.36 50.18 L 152.20 50.98 L 153.86 52.02 L 155.29 53.25 L 156.49 54.59 L 157.44 55.96 L 158.17 57.29 L 158.67 58.50 L 158.99 59.52 L 159.15 60.29 L 159.21 60.78 Z" fill="#fff5fa" fill-opacity="0.82"/>
<path d="M 352.59 67.94 L 352.60 67.78 L 352.67 67.29 L 352.83 66.52 L 353.15 65.50 L 353.65 64.29 L 354.37 62.96 L 355.33 61.59 L 356.53 60.25 L 357.96 59.02 L 359.61 57.98 L 361.45 57.18 L 363.44 56.68 L 365.53 56.51 L 367.65 56.68 L 369.76 57.20 L 371.78 58.07 L 373.66 59.25 L 375.33 60.72 L 376.74 62.43 L 377.84 64.32 L 378.59 66.37 L 378.97 68.50 L 378.97 70.69 L 378.59 72.90 L 377.84 75.09 L 376.74 77.24 L 375.33 79.34 L 373.66 81.38 L 371.78 83.36 L 369.76 85.28 L 367.65 87.16 L 365.53 88.98 L 363.44 90.76 L 361.45 92.50 L 359.61 94.18 L 357.96 95.81 L 356.53 97.36 L 355.33 98.81 L 354.37 100.15 L 353.65 101.34 L 353.15 102.36 L 352.83 103.18 L 352.67 103.79 L 352.60 104.16 L 352.59 104.28 L 352.59 104.16 L 352.52 103.79 L 352.36 103.18 L 352.04 102.36 L 351.54 101.34 L 350.82 100.15 L 349.86 98.81 L 348.66 97.36 L 347.23 95.81 L 345.58 94.18 L 343.74 92.50 L 341.75 90.76 L 339.66 88.98 L 337.54 87.16 L 335.43 85.28 L 333.41 83.36 L 331.53 81.38 L 329.86 79.34 L 328.45 77.24 L 327.35 75.09 L 326.60 72.90 L 326.21 70.69 L 326.21 68.50 L 326.60 66.37 L 327.35 64.32 L 328.45 62.43 L 329.86 60.72 L 331.53 59.25 L 333.41 58.07 L 335.43 57.20 L 337.54 56.68 L 339.66 56.51 L 341.75 56.68 L 343.74 57.18 L 345.58 57.98 L 347.23 59.02 L 348.66 60.25 L 349.86 61.59 L 350.82 62.96 L 351.54 64.29 L 352.04 65.50 L 352.36 66.52 L 352.52 67.29 L 352.59 67.78 Z" fill="#fff5fa" fill-opacity="0.82"/>
<path d="M 545.97 60.94 L 545.97 60.78 L 546.04 60.29 L 546.20 59.52 L 546.52 58.50 L 547.02 57.29 L 547.74 55.96 L 548.70 54.59 L 549.90 53.25 L 551.33 52.02 L 552.98 50.98 L 554.82 50.18 L 556.81 49.68 L 558.90 49.51 L 561.02 49.68 L 563.13 50.20 L 565.15 51.07 L 567.03 52.25 L 568.70 53.72 L 570.11 55.43 L 571.21 57.32 L 571.96 59.37 L 572.35 61.50 L 572.35 63.69 L 571.96 65.90 L 571.21 68.09 L 570.11 70.24 L 568.70 72.34 L 567.03 74.38 L 565.15 76.36 L 563.13 78.28 L 561.02 80.16 L 558.90 81.98 L 556.81 83.76 L 554.82 85.50 L 552.98 87.18 L 551.33 88.81 L 549.90 90.36 L 548.70 91.81 L 547.74 93.15 L 547.02 94.34 L 546.52 95.36 L 546.20 96.18 L 546.04 96.79 L 545.97 97.16 L 545.97 97.28 L 545.96 97.16 L 545.89 96.79 L 545.73 96.18 L 545.41 95.36 L 544.91 94.34 L 544.19 93.15 L 543.23 91.81 L 542.03 90.36 L 540.60 88.81 L 538.95 87.18 L 537.11 85.50 L 535.12 83.76 L 533.03 81.98 L 530.91 80.16 L 528.80 78.28 L 526.78 76.36 L 524.90 74.38 L 523.23 72.34 L 521.82 70.24 L 520.72 68.09 L 519.97 65.90 L 519.59 63.69 L 519.59 61.50 L 519.97 59.37 L 520.72 57.32 L 521.82 55.43 L 523.23 53.72 L 524.90 52.25 L 526.78 51.07 L 528.80 50.20 L 530.91 49.68 L 533.03 49.51 L 535.12 49.68 L 537.11 50.18 L 538.95 50.98 L 540.60 52.02 L 542.03 53.25 L 543.23 54.59 L 544.19 55.96 L 544.91 57.29 L 545.41 58.50 L 545.73 59.52 L 545.89 60.29 L 545.96 60.78 Z" fill="#fff5fa" fill-opacity="0.82"/>
<path d="M 739.34 67.94 L 739.35 67.78 L 739.41 67.29 L 739.57 66.52 L 739.89 65.50 L 740.39 64.29 L 741.12 62.96 L 742.07 61.59 L 743.27 60.25 L 744.70 59.02 L 746.36 57.98 L 748.20 57.18 L 750.18 56.68 L 752.27 56.51 L 754.40 56.68 L 756.50 57.20 L 758.53 58.07 L 760.40 59.25 L 762.07 60.72 L 763.48 62.43 L 764.58 64.32 L 765.33 66.37 L 765.72 68.50 L 765.72 70.69 L 765.33 72.90 L 764.58 75.09 L 763.48 77.24 L 762.07 79.34 L 760.40 81.38 L 758.53 83.36 L 756.50 85.28 L 754.40 87.16 L 752.27 88.98 L 750.18 90.76 L 748.20 92.50 L 746.36 94.18 L 744.70 95.81 L 743.27 97.36 L 742.07 98.81 L 741.12 100.15 L 740.39 101.34 L 739.89 102.36 L 739.57 103.18 L 739.41 103.79 L 739.35 104.16 L 739.34 104.28 L 739.33 104.16 L 739.27 103.79 L 739.10 103.18 L 738.78 102.36 L 738.28 101.34 L 737.56 100.15 L 736.60 98.81 L 735.40 97.36 L 733.97 95.81 L 732.32 94.18 L 730.48 92.50 L 728.49 90.76 L 726.41 88.98 L 724.28 87.16 L 722.17 85.28 L 720.15 83.36 L 718.27 81.38 L 716.60 79.34 L 715.19 77.24 L 714.10 75.09 L 713.34 72.90 L 712.96 70.69 L 712.96 68.50 L 713.34 66.37 L 714.10 64.32 L 715.19 62.43 L 716.60 60.72 L 718.27 59.25 L 720.15 58.07 L 722.17 57.20 L 724.28 56.68 L 726.41 56.51 L 728.49 56.68 L 730.48 57.18 L 732.32 57.98 L 733.97 59.02 L 735.40 60.25 L 736.60 61.59 L 737.56 62.96 L 738.28 64.29 L 738.78 65.50 L 739.10 66.52 L 739.27 67.29 L 739.33 67.78 Z" fill="#fff5fa" fill-opacity="0.82"/>
<path d="M 932.71 60.94 L 932.72 60.78 L 932.78 60.29 L 932.95 59.52 L 933.26 58.50 L 933.77 57.29 L 934.49 55.96 L 935.44 54.59 L 936.64 53.25 L 938.08 52.02 L 939.73 50.98 L 941.57 50.18 L 943.56 49.68 L 945.64 49.51 L 947.77 49.68 L 949.87 50.20 L 951.90 51.07 L 953.77 52.25 L 955.44 53.72 L 956.85 55.43 L 957.95 57.32 L 958.70 59.37 L 959.09 61.50 L 959.09 63.69 L 958.70 65.90 L 957.95 68.09 L 956.85 70.24 L 955.44 72.34 L 953.77 74.38 L 951.90 76.36 L 949.87 78.28 L 947.77 80.16 L 945.64 81.98 L 943.56 83.76 L 941.57 85.50 L 939.73 87.18 L 938.08 88.81 L 936.64 90.36 L 935.44 91.81 L 934.49 93.15 L 933.77 94.34 L 933.26 95.36 L 932.95 96.18 L 932.78 96.79 L 932.72 97.16 L 932.71 97.28 L 932.70 97.16 L 932.64 96.79 L 932.47 96.18 L 932.16 95.36 L 931.65 94.34 L 930.93 93.15 L 929.97 91.81 L 928.78 90.36 L 927.34 88.81 L 925.69 87.18 L 923.85 85.50 L 921.86 83.76 L 919.78 81.98 L 917.65 80.16 L 915.54 78.28 L 913.52 76.36 L 911.64 74.38 L 909.97 72.34 L 908.57 70.24 L 907.47 68.09 L 906.71 65.90 L 906.33 63.69 L 906.33 61.50 L 906.71 59.37 L 907.47 57.32 L 908.57 55.43 L 909.97 53.72 L 911.64 52.25 L 913.52 51.07 L 915.54 50.20 L 917.65 49.68 L 919.78 49.51 L 921.86 49.68 L 923.85 50.18 L 925.69 50.98 L 927.34 52.02 L 928.78 53.25 L 929.97 54.59 L 930.93 55.96 L 931.65 57.29 L 932.16 58.50 L 932.47 59.52 L 932.64 60.29 L 932.70 60.78 Z" fill="#fff5fa" fill-opacity="0.82"/>
<path d="M 1126.08 67.94 L 1126.09 67.78 L 1126.15 67.29 L 1126.32 66.52 L 1126.63 65.50 L 1127.14 64.29 L 1127.86 62.96 L 1128.81 61.59 L 1130.01 60.25 L 1131.45 59.02 L 1133.10 57.98 L 1134.94 57.18 L 1136.93 56.68 L 1139.01 56.51 L 1141.14 56.68 L 1143.25 57.20 L 1145.27 58.07 L 1147.15 59.25 L 1148.81 60.72 L 1150.22 62.43 L 1151.32 64.32 L 1152.08 66.37 L 1152.46 68.50 L 1152.46 70.69 L 1152.08 72.90 L 1151.32 75.09 L 1150.22 77.24 L 1148.81 79.34 L 1147.15 81.38 L 1145.27 83.36 L 1143.25 85.28 L 1141.14 87.16 L 1139.01 88.98 L 1136.93 90.76 L 1134.94 92.50 L 1133.10 94.18 L 1131.45 95.81 L 1130.01 97.36 L 1128.81 98.81 L 1127.86 100.15 L 1127.14 101.34 L 1126.63 102.36 L 1126.32 103.18 L 1126.15 103.79 L 1126.09 104.16 L 1126.08 104.28 L 1126.07 104.16 L 1126.01 103.79 L 1125.84 103.18 L 1125.53 102.36 L 1125.02 101.34 L 1124.30 100.15 L 1123.35 98.81 L 1122.15 97.36 L 1120.71 95.81 L 1119.06 94.18 L 1117.22 92.50 L 1115.23 90.76 L 1113.15 88.98 L 1111.02 87.16 L 1108.91 85.28 L 1106.89 83.36 L 1105.01 81.38 L 1103.35 79.34 L 1101.94 77.24 L 1100.84 75.09 L 1100.08 72.90 L 1099.70 70.69 L 1099.70 68.50 L 1100.08 66.37 L 1100.84 64.32 L 1101.94 62.43 L 1103.35 60.72 L 1105.01 59.25 L 1106.89 58.07 L 1108.91 57.20 L 1111.02 56.68 L 1113.15 56.51 L 1115.23 56.68 L 1117.22 57.18 L 1119.06 57.98 L 1120.71 59.02 L 1122.15 60.25 L 1123.35 61.59 L 1124.30 62.96 L 1125.02 64.29 L 1125.53 65.50 L 1125.84 66.52 L 1126.01 67.29 L 1126.07 67.78 Z" fill="#fff5fa" fill-opacity="0.82"/>
<path d="M 1319.45 60.94 L 1319.46 60.78 L 1319.52 60.29 L 1319.69 59.52 L 1320.00 58.50 L 1320.51 57.29 L 1321.23 55.96 L 1322.19 54.59 L 1323.38 53.25 L 1324.82 52.02 L 1326.47 50.98 L 1328.31 50.18 L 1330.30 49.68 L 1332.38 49.51 L 1334.51 49.68 L 1336.62 50.20 L 1338.64 51.07 L 1340.52 52.25 L 1342.19 53.72 L 1343.59 55.43 L 1344.69 57.32 L 1345.45 59.37 L 1345.83 61.50 L 1345.83 63.69 L 1345.45 65.90 L 1344.69 68.09 L 1343.59 70.24 L 1342.19 72.34 L 1340.52 74.38 L 1338.64 76.36 L 1336.62 78.28 L 1334.51 80.16 L 1332.38 81.98 L 1330.30 83.76 L 1328.31 85.50 L 1326.47 87.18 L 1324.82 88.81 L 1323.38 90.36 L 1322.19 91.81 L 1321.23 93.15 L 1320.51 94.34 L 1320.00 95.36 L 1319.69 96.18 L 1319.52 96.79 L 1319.46 97.16 L 1319.45 97.28 L 1319.44 97.16 L 1319.38 96.79 L 1319.21 96.18 L 1318.90 95.36 L 1318.39 94.34 L 1317.67 93.15 L 1316.72 91.81 L 1315.52 90.36 L 1314.08 88.81 L 1312.43 87.18 L 1310.59 85.50 L 1308.60 83.76 L 1306.52 81.98 L 1304.39 80.16 L 1302.29 78.28 L 1300.26 76.36 L 1298.39 74.38 L 1296.72 72.34 L 1295.31 70.24 L 1294.21 68.09 L 1293.46 65.90 L 1293.07 63.69 L 1293.07 61.50 L 1293.46 59.37 L 1294.21 57.32 L 1295.31 55.43 L 1296.72 53.72 L 1298.39 52.25 L 1300.26 51.07 L 1302.29 50.20 L 1304.39 49.68 L 1306.52 49.51 L 1308.60 49.68 L 1310.59 50.18 L 1312.43 50.98 L 1314.08 52.02 L 1315.52 53.25 L 1316.72 54.59 L 1317.67 55.96 L 1318.39 57.29 L 1318.90 58.50 L 1319.21 59.52 L 1319.38 60.29 L 1319.44 60.78 Z" fill="#fff5fa" fill-opacity="0.82"/>
</svg>