<svg xmlns="http://www.w3.org/2000/svg" viewBox="0 0 1440 1080" fill="none">
  <rect x="20" y="20" width="1400" height="1040" rx="54" stroke="#ff4f8f" stroke-width="28"/>
  <rect x="54" y="54" width="1332" height="972" rx="38" stroke="#ff9bbb" stroke-width="8" stroke-dasharray="10 16"/>
  <g fill="#ff9bbb" opacity="0.9">
    <path d="M140 120c0-20 16-36 36-36 12 0 24 6 30 16 6-10 18-16 30-16 20 0 36 16 36 36 0 39-66 72-66 72s-66-33-66-72z"/>
    <path d="M1300 120c0-20-16-36-36-36-12 0-24 6-30 16-6-10-18-16-30-16-20 0-36 16-36 36 0 39 66 72 66 72s66-33 66-72z"/>
    <path d="M140 960c0 20 16 36 36 36 12 0 24-6 30-16 6 10 18 16 30 16 20 0 36-16 36-36 0-39-66-72-66-72s-66 33-66 72z"/>
    <path d="M1300 960c0 20-16 36-36 36-12 0-24-6-30-16-6 10-18 16-30 16-20 0-36-16-36-36 0-39 66-72 66-72s66 33 66 72z"/>
  </g>
</svg>