<svg xmlns="http://www.w3.org/2000/svg" viewBox="0 0 1080 1440" width="1080" height="1440" fill="none">
<rect x="41.04" y="41.04" width="997.92" height="1357.92" rx="20" stroke="#94c077" stroke-opacity="0.9" stroke-width="8"/>
<circle cx="87.80" cy="41.04" r="17.82" fill="#ffb9d7" fill-opacity="0.84"/>
<circle cx="71.60" cy="69.10" r="17.82" fill="#ffb9d7" fill-opacity="0.84"/>
<circle cx="39.20" cy="69.10" r="17.82" fill="#ffb9d7" fill-opacity="0.84"/>
<circle cx="23.00" cy="41.04" r="17.82" fill="#ffb9d7" fill-opacity="0.84"/>
<circle cx="39.20" cy="12.98" r="17.82" fill="#ffb9d7" fill-opacity="0.84"/>
<circle cx="71.60" cy="12.98" r="17.82" fill="#ffb9d7" fill-opacity="0.84"/>
<circle cx="55.40" cy="41.04" r="16.20" fill="#faea9b" fill-opacity="0.9"/>
<circle cx="1057.00" cy="41.04" r="17.82" fill="#ffb9d7" fill-opacity="0.84"/>
<circle cx="1040.80" cy="69.10" r="17.82" fill="#ffb9d7" fill-opacity="0.84"/>
<circle cx="1008.40" cy="69.10" r="17.82" fill="#ffb9d7" fill-opacity="0.84"/>
<circle cx="992.20" cy="41.04" r="17.82" fill="#ffb9d7" fill-opacity="0.84"/>
<circle cx="1008.40" cy="12.98" r="17.82" fill="#ffb9d7" fill-opacity="0.84"/>
<circle cx="1040.80" cy="12.98" r="17.82" fill="#ffb9d7" fill-opacity="0.84"/>
<circle cx="1024.60" cy="41.04" r="16.20" fill="#faea9b" fill-opacity="0.9"/>
<circle cx="100.22" cy="191.92" r="17.82" fill="#ffb9d7" fill-opacity="0.84"/>
<circle cx="84.02" cy="219.98" r="17.82" fill="#ffb9d7" fill-opacity="0.84"/>
<circle cx="51.62" cy="219.98" r="17.82" fill="#ffb9d7" fill-opacity="0.84"/>
<circle cx="35.42" cy="191.92" r="17.82" fill="#ffb9d7" fill-opacity="0.84"/>
<circle cx="51.62" cy="163.86" r="17.82" fill="#ffb9d7" fill-opacity="0.84"/>
<circle cx="84.02" cy="163.86" r="17.82" fill="#ffb9d7" fill-opacity="0.84"/>
<circle cx="67.82" cy="191.92" r="16.20" fill="#faea9b" fill-opacity="0.9"/>
<circle cx="1044.58" cy="191.92" r="17.82" fill="#ffb9d7" fill-opacity="0.84"/>
<circle cx="1028.38" cy="219.98" r="17.82" fill="#ffb9d7" fill-opacity="0.84"/>
<circle cx="995.98" cy="219.98" r="17.82" fill="#ffb9d7" fill-opacity="0.84"/>
<circle cx="979.78" cy="191.92" r="17.82" fill="#ffb9d7" fill-opacity="0.84"/>
<circle cx="995.98" cy="163.86" r="17.82" fill="#ffb9d7" fill-opacity="0.84"/>
<circle cx="1028.38" cy="163.86" r="17.82" fill="#ffb9d7" fill-opacity="0.84"/>
<circle cx="1012.18" cy="191.92" r="16.20" fill="#faea9b" fill-opacity="0.9"/>
<circle cx="107.58" cy="342.80" r="17.82" fill="#ffb9d7" fill-opacity="0.84"/>
<circle cx="91.38" cy="370.86" r="17.82" fill="#ffb9d7" fill-opacity="0.84"/>
<circle cx="58.98" cy="370.86" r="17.82" fill="#ffb9d7" fill-opacity="0.84"/>
<circle cx="42.78" cy="342.80" r="17.82" fill="#ffb9d7" fill-opacity="0.84"/>
<circle cx="58.98" cy="314.74" r="17.82" fill="#ffb9d7" fill-opacity="0.84"/>
<circle cx="91.38" cy="314.74" r="17.82" fill="#ffb9d7" fill-opacity="0.84"/>
<circle cx="75.18" cy="342.80" r="16.20" fill="#faea9b" fill-opacity="0.9"/>
<circle cx="1037.22" cy="342.80" r="17.82" fill="#ffb9d7" fill-opacity="0.84"/>
<circle cx="1021.02" cy="370.86" r="17.82" fill="#ffb9d7" fill-opacity="0.84"/>
<circle cx="988.62" cy="370.86" r="17.82" fill="#ffb9d7" fill-opacity="0.84"/>
<circle cx="972.42" cy="342.80" r="17.82" fill="#ffb9d7" fill-opacity="0.84"/>
<circle cx="988.62" cy="314.74" r="17.82" fill="#ffb9d7" fill-opacity="0.84"/>
<circle cx="1021.02" cy="314.74" r="17.82" fill="#ffb9d7" fill-opacity="0.84"/>
<circle cx="1004.82" cy="342.80" r="16.20" fill="#faea9b" fill-opacity="0.9"/>
<circle cx="106.87" cy="493.68" r="17.82" fill="#ffb9d7" fill-opacity="0.84"/>
<circle cx="90.67" cy="521.74" r="17.82" fill="#ffb9d7" fill-opacity="0.84"/>
<circle cx="58.27" cy="521.74" r="17.82" fill="#ffb9d7" fill-opacity="0.84"/>
<circle cx="42.07" cy="493.68" r="17.82" fill="#ffb9d7" fill-opacity="0.84"/>
<circle cx="58.27" cy="465.62" r="17.82" fill="#ffb9d7" fill-opacity="0.84"/>
<circle cx="90.67" cy="465.62" r="17.82" fill="#ffb9d7" fill-opacity="0.84"/>
<circle cx="74.47" cy="493.68" r="16.20" fill="#faea9b" fill-opacity="0.9"/>
<circle cx="1037.93" cy="493.68" r="17.82" fill="#ffb9d7" fill-opacity="0.84"/>
<circle cx="1021.73" cy="521.74" r="17.82" fill="#ffb9d7" fill-opacity="0.84"/>
<circle cx="989.33" cy="521.74" r="17.82" fill="#ffb9d7" fill-opacity="0.84"/>
<circle cx="973.13" cy="493.68" r="17.82" fill="#ffb9d7" fill-opacity="0.84"/>
<circle cx="989.33" cy="465.62" r="17.82" fill="#ffb9d7" fill-opacity="0.84"/>
<circle cx="1021.73" cy="465.62" r="17.82" fill="#ffb9d7" fill-opacity="0.84"/>
<circle cx="1005.53" cy="493.68" r="16.20" fill="#faea9b" fill-opacity="0.9"/>
<circle cx="98.38" cy="644.56" r="17.82" fill="#ffb9d7" fill-opacity="0.84"/>
<circle cx="82.18" cy="672.62" r="17.82" fill="#ffb9d7" fill-opacity="0.84"/>
<circle cx="49.78" cy="672.62" r="17.82" fill="#ffb9d7" fill-opacity="0.84"/>
<circle cx="33.58" cy="644.56" r="17.82" fill="#ffb9d7" fill-opacity="0.84"/>
<circle cx="49.78" cy="616.50" r="17.82" fill="#ffb9d7" fill-opacity="0.84"/>
<circle cx="82.18" cy="616.50" r="17.82" fill="#ffb9d7" fill-opacity="0.84"/>
<circle cx="65.98" cy="644.56" r="16.20" fill="#faea9b" fill-opacity="0.9"/>
<circle cx="1046.42" cy="644.56" r="17.82" fill="#ffb9d7" fill-opacity="0.84"/>
<circle cx="1030.22" cy="672.62" r="17.82" fill="#ffb9d7" fill-opacity="0.84"/>
<circle cx="997.82" cy="672.62" r="17.82" fill="#ffb9d7" fill-opacity="0.84"/>
<circle cx="981.62" cy="644.56" r="17.82" fill="#ffb9d7" fill-opacity="0.84"/>
<circle cx="997.82" cy="616.50" r="17.82" fill="#ffb9d7" fill-opacity="0.84"/>
<circle cx="1030.22" cy="616.50" r="17.82" fill="#ffb9d7" fill-opacity="0.84"/>
<circle cx="1014.02" cy="644.56" r="16.20" fill="#faea9b" fill-opacity="0.9"/>
<circle cx="85.58" cy="795.44" r="17.82" fill="#ffb9d7" fill-opacity="0.84"/>
<circle cx="69.38" cy="823.50" r="17.82" fill="#ffb9d7" fill-opacity="0.84"/>
<circle cx="36.98" cy="823.50" r="17.82" fill="#ffb9d7" fill-opacity="0.84"/>
<circle cx="20.78" cy="795.44" r="17.82" fill="#ffb9d7" fill-opacity="0.84"/>
<circle cx="36.98" cy="767.38" r="17.82" fill="#ffb9d7" fill-opacity="0.84"/>
<circle cx="69.38" cy="767.38" r="17.82" fill="#ffb9d7" fill-opacity="0.84"/>
<circle cx="53.18" cy="795.44" r="16.20" fill="#faea9b" fill-opacity="0.9"/>
<circle cx="1059.22" cy="795.44" r="17.82" fill="#ffb9d7" fill-opacity="0.84"/>
<circle cx="1043.02" cy="823.50" r="17.82" fill="#ffb9d7" fill-opacity="0.84"/>
<circle cx="1010.62" cy="823.50" r="17.82" fill="#ffb9d7" fill-opacity="0.84"/>
<circle cx="994.42" cy="795.44" r="17.82" fill="#ffb9d7" fill-opacity="0.84"/>
<circle cx="1010.62" cy="767.38" r="17.82" fill="#ffb9d7" fill-opacity="0.84"/>
<circle cx="1043.02" cy="767.38" r="17.82" fill="#ffb9d7" fill-opacity="0.84"/>
<circle cx="1026.82" cy="795.44" r="16.20" fill="#faea9b" fill-opacity="0.9"/>
<circle cx="73.69" cy="946.32" r="17.82" fill="#ffb9d7" fill-opacity="0.84"/>
<circle cx="57.49" cy="974.38" r="17.82" fill="#ffb9d7" fill-opacity="0.84"/>
<circle cx="25.09" cy="974.38" r="17.82" fill="#ffb9d7" fill-opacity="0.84"/>
<circle cx="8.89" cy="946.32" r="17.82" fill="#ffb9d7" fill-opacity="0.84"/>
<circle cx="25.09" cy="918.26" r="17.82" fill="#ffb9d7" fill-opacity="0.84"/>
<circle cx="57.49" cy="918.26" r="17.82" fill="#ffb9d7" fill-opacity="0.84"/>
<circle cx="41.29" cy="946.32" r="16.20" fill="#faea9b" fill-opacity="0.9"/>
<circle cx="1071.11" cy="946.32" r="17.82" fill="#ffb9d7" fill-opacity="0.84"/>
<circle cx="1054.91" cy="974.38" r="17.82" fill="#ffb9d7" fill-opacity="0.84"/>
<circle cx="1022.51" cy="974.38" r="17.82" fill="#ffb9d7" fill-opacity="0.84"/>
<circle cx="1006.31" cy="946.32" r="17.82" fill="#ffb9d7" fill-opacity="0.84"/>
<circle cx="1022.51" cy="918.26" r="17.82" fill="#ffb9d7" fill-opacity="0.84"/>
<circle cx="1054.91" cy="918.26" r="17.82" fill="#ffb9d7" fill-opacity="0.84"/>
<circle cx="1038.71" cy="946.32" r="16.20" fill="#faea9b" fill-opacity="0.9"/>
<circle cx="67.55" cy="1097.20" r="17.82" fill="#ffb9d7" fill-opacity="0.84"/>
<circle cx="51.35" cy="1125.26" r="17.82" fill="#ffb9d7" fill-opacity="0.84"/>
<circle cx="18.95" cy="1125.26" r="17.82" fill="#ffb9d7" fill-opacity="0.84"/>
<circle cx="2.75" cy="1097.20" r="17.82" fill="#ffb9d7" fill-opacity="0.84"/>
<circle cx="18.95" cy="1069.14" r="17.82" fill="#ffb9d7" fill-opacity="0.84"/>
<circle cx="51.35" cy="1069.14" r="17.82" fill="#ffb9d7" fill-opacity="0.84"/>
<circle cx="35.15" cy="1097.20" r="16.20" fill="#faea9b" fill-opacity="0.9"/>
<circle cx="1077.25" cy="1097.20" r="17.82" fill="#ffb9d7" fill-opacity="0.84"/>
<circle cx="1061.05" cy="1125.26" r="17.82" fill="#ffb9d7" fill-opacity="0.84"/>
<circle cx="1028.65" cy="1125.26" r="17.82" fill="#ffb9d7" fill-opacity="0.84"/>
<circle cx="1012.45" cy="1097.20" r="17.82" fill="#ffb9d7" fill-opacity="0.84"/>
<circle cx="1028.65" cy="1069.14" r="17.82" fill="#ffb9d7" fill-opacity="0.84"/>
<circle cx="1061.05" cy="1069.14" r="17.82" fill="#ffb9d7" fill-opacity="0.84"/>
<circle cx="1044.85" cy="1097.20" r="16.20" fill="#faea9b" fill-opacity="0.9"/>
<circle cx="69.68" cy="1248.08" r="17.82" fill="#ffb9d7" fill-opacity="0.84"/>
<circle cx="53.48" cy="1276.14" r="17.82" fill="#ffb9d7" fill-opacity="0.84"/>
<circle cx="21.08" cy="1276.14" r="17.82" fill="#ffb9d7" fill-opacity="0.84"/>
<circle cx="4.88" cy="1248.08" r="17.82" fill="#ffb9d7" fill-opacity="0.84"/>
<circle cx="21.08" cy="1220.02" r="17.82" fill="#ffb9d7" fill-opacity="0.84"/>
<circle cx="53.48" cy="1220.02" r="17.82" fill="#ffb9d7" fill-opacity="0.84"/>
<circle cx="37.28" cy="1248.08" r="16.20" fill="#faea9b" fill-opacity="0.9"/>
<circle cx="1075.12" cy="1248.08" r="17.82" fill="#ffb9d7" fill-opacity="0.84"/>
<circle cx="1058.92" cy="1276.14" r="17.82" fill="#ffb9d7" fill-opacity="0.84"/>
<circle cx="1026.52" cy="1276.14" r="17.82" fill="#ffb9d7" fill-opacity="0.84"/>
<circle cx="1010.32" cy="1248.08" r="17.82" fill="#ffb9d7" fill-opacity="0.84"/>
<circle cx="1026.52" cy="1220.02" r="17.82" fill="#ffb9d7" fill-opacity="0.84"/>
<circle cx="1058.92" cy="1220.02" r="17.82" fill="#ffb9d7" fill-opacity="0.84"/>
<circle cx="1042.72" cy="1248.08" r="16.20" fill="#faea9b" fill-opacity="0.9"/>
<circle cx="79.19" cy="1398.96" r="17.82" fill="#ffb9d7" fill-opacity="0.84"/>
<circle cx="62.99" cy="1427.02" r="17.82" fill="#ffb9d7" fill-opacity="0.84"/>
<circle cx="30.59" cy="1427.02" r="17.82" fill="#ffb9d7" fill-opacity="0.84"/>
<circle cx="14.39" cy="1398.96" r="17.82" fill="#ffb9d7" fill-opacity="0.84"/>
<circle cx="30.59" cy="1370.90" r="17.82" fill="#ffb9d7" fill-opacity="0.84"/>
<circle cx="62.99" cy="1370.90" r="17.82" fill="#ffb9d7" fill-opacity="0.84"/>
<circle cx="46.79" cy="1398.96" r="16.20" fill="#faea9b" fill-opacity="0.9"/>
<circle cx="1065.61" cy="1398.96" r="17.82" fill="#ffb9d7" fill-opacity="0.84"/>
<circle cx="1049.41" cy="1427.02" r="17.82" fill="#ffb9d7" fill-opacity="0.84"/>
<circle cx="1017.01" cy="1427.02" r="17.82" fill="#ffb9d7" fill-opacity="0.84"/>
<circle cx="1000.81" cy="1398.96" r="17.82" fill="#ffb9d7" fill-opacity="0.84"/>
<circle cx="1017.01" cy="1370.90" r="17.82" fill="#ffb9d7" fill-opacity="0.84"/>
<circle cx="1049.41" cy="1370.90" r="17.82" fill="#ffb9d7" fill-opacity="0.84"/>
<circle cx="1033.21" cy="1398.96" r="16.20" fill="#faea9b" fill-opacity="0.9"/>
</svg>