<svg xmlns="http://www.w3.org/2000/svg" viewBox="0 0 1080 1440" width="1080" height="1440" fill="none">
<rect x="59.40" y="59.40" width="961.20" height="1321.20" stroke="#ffffff" stroke-opacity="0.95" stroke-width="59.40"/>
<rect x="59.40" y="1261.80" width="961.20" height="118.80" fill="#ffffff" fill-opacity="0.82"/>
<polygon points="89.40,83.40 297.00,59.40 263.00,129.60 59.40,141.60" fill="#f8d29e" fill-opacity="0.8"/>
<polygon points="990.60,83.40 783.00,59.40 817.00,129.60 1020.60,141.60" fill="#f8d29e" fill-opacity="0.8"/>
<path d="M 540.00 1298.96 L 540.02 1298.52 L 540.19 1297.22 L 540.64 1295.14 L 541.49 1292.39 L 542.85 1289.13 L 544.79 1285.55 L 547.36 1281.85 L 550.59 1278.25 L 554.45 1274.95 L 558.90 1272.15 L 563.85 1270.00 L 569.20 1268.65 L 574.82 1268.18 L 580.54 1268.64 L 586.22 1270.06 L 591.66 1272.39 L 596.71 1275.58 L 601.21 1279.53 L 605.00 1284.12 L 607.96 1289.23 L 609.99 1294.72 L 611.02 1300.48 L 611.02 1306.37 L 609.99 1312.30 L 607.96 1318.20 L 605.00 1323.99 L 601.21 1329.65 L 596.71 1335.14 L 591.66 1340.48 L 586.22 1345.66 L 580.54 1350.70 L 574.82 1355.61 L 569.20 1360.41 L 563.85 1365.08 L 558.90 1369.62 L 554.45 1373.99 L 550.59 1378.17 L 547.36 1382.08 L 544.79 1385.68 L 542.85 1388.88 L 541.49 1391.63 L 540.64 1393.84 L 540.19 1395.47 L 540.02 1396.46 L 540.00 1396.80 L 539.98 1396.46 L 539.81 1395.47 L 539.36 1393.84 L 538.51 1391.63 L 537.15 1388.88 L 535.21 1385.68 L 532.64 1382.08 L 529.41 1378.17 L 525.55 1373.99 L 521.10 1369.62 L 516.15 1365.08 L 510.80 1360.41 L 505.18 1355.61 L 499.46 1350.70 L 493.78 1345.66 L 488.34 1340.48 L 483.29 1335.14 L 478.79 1329.65 L 475.00 1323.99 L 472.04 1318.20 L 470.01 1312.30 L 468.98 1306.37 L 468.98 1300.48 L 470.01 1294.72 L 472.04 1289.23 L 475.00 1284.12 L 478.79 1279.53 L 483.29 1275.58 L 488.34 1272.39 L 493.78 1270.06 L 499.46 1268.64 L 505.18 1268.18 L 510.80 1268.65 L 516.15 1270.00 L 521.10 1272.15 L 525.55 1274.95 L 529.41 1278.25 L 532.64 1281.85 L 535.21 1285.55 L 537.15 1289.13 L 538.51 1292.39 L 539.36 1295.14 L 539.81 1297.22 L 539.98 1298.52 Z" fill="#ec5080" fill-opacity="0.85"/>
</svg>