<svg xmlns="http://www.w3.org/2000/svg" viewBox="0 0 1080 1440" width="1080" height="1440" fill="none">
<rect x="43.20" y="43.20" width="993.60" height="1353.60" rx="16" stroke="#f174a0" stroke-opacity="0.85" stroke-width="6"/>
<polygon points="0,0 183.60,0 0,183.60" fill="#ff90b6" fill-opacity="0.82"/>
<polygon points="1080,0 896.40,0 1080,183.60" fill="#ffbad1" fill-opacity="0.82"/>
<polygon points="0,1440 0,1256.40 183.60,1440" fill="#ffbad1" fill-opacity="0.82"/>
<polygon points="1080,1440 896.40,1440 1080,1256.40" fill="#ff90b6" fill-opacity="0.82"/>
<line x1="78.20" y1="288.00" x2="1001.80" y2="504.00" stroke="#fff5fd" stroke-width="7"/>
<polygon points="1001.80,504.00 978.80,475.20 990.80,547.20" fill="#fff5fd"/>
<line x1="1001.80" y1="936.00" x2="78.20" y2="1152.00" stroke="#fff5fd" stroke-width="7"/>
<polygon points="78.20,1152.00 101.20,1123.20 89.20,1195.20" fill="#fff5fd"/>
<path d="M 142.56 60.94 L 142.57 60.78 L 142.63 60.29 L 142.80 59.52 L 143.11 58.50 L 143.62 57.29 L 144.34 55.96 L 145.29 54.59 L 146.49 53.25 L 147.93 52.02 L 149.58 50.98 L 151.42 50.18 L 153.41 49.68 L 155.49 49.51 L 157.62 49.68 L 159.73 50.20 L 161.75 51.07 L 163.63 52.25 L 165.29 53.72 L 166.70 55.43 L 167.80 57.32 L 168.56 59.37 L 168.94 61.50 L 168.94 63.69 L 168.56 65.90 L 167.80 68.09 L 166.70 70.24 L 165.29 72.34 L 163.63 74.38 L 161.75 76.36 L 159.73 78.28 L 157.62 80.16 L 155.49 81.98 L 153.41 83.76 L 151.42 85.50 L 149.58 87.18 L 147.93 88.81 L 146.49 90.36 L 145.29 91.81 L 144.34 93.15 L 143.62 94.34 L 143.11 95.36 L 142.80 96.18 L 142.63 96.79 L 142.57 97.16 L 142.56 97.28 L 142.55 97.16 L 142.49 96.79 L 142.32 96.18 L 142.01 95.36 L 141.50 94.34 L 140.78 93.15 L 139.83 91.81 L 138.63 90.36 L 137.19 88.81 L 135.54 87.18 L 133.70 85.50 L 131.71 83.76 L 129.63 81.98 L 127.50 80.16 L 125.39 78.28 L 123.37 76.36 L 121.49 74.38 L 119.83 72.34 L 118.42 70.24 L 117.32 68.09 L 116.56 65.90 L 116.18 63.69 L 116.18 61.50 L 116.56 59.37 L 117.32 57.32 L 118.42 55.43 L 119.83 53.72 L 121.49 52.25 L 123.37 51.07 L 125.39 50.20 L 127.50 49.68 L 129.63 49.51 L 131.71 49.68 L 133.70 50.18 L 135.54 50.98 L 137.19 52.02 L 138.63 53.25 L 139.83 54.59 L 140.78 55.96 L 141.50 57.29 L 142.01 58.50 L 142.32 59.52 L 142.49 60.29 L 142.55 60.78 Z" fill="#fff5fa" fill-opacity="0.82"/>
<path d="M 308.16 67.94 L 308.17 67.78 L 308.23 67.29 L 308.40 66.52 L 308.71 65.50 L 309.22 64.29 L 309.94 62.96 L 310.89 61.59 L 312.09 60.25 L 313.53 59.02 L 315.18 57.98 L 317.02 57.18 L 319.01 56.68 L 321.09 56.51 L 323.22 56.68 L 325.33 57.20 L 327.35 58.07 L 329.23 59.25 L 330.89 60.72 L 332.30 62.43 L 333.40 64.32 L 334.16 66.37 L 334.54 68.50 L 334.54 70.69 L 334.16 72.90 L 333.40 75.09 L 332.30 77.24 L 330.89 79.34 L 329.23 81.38 L 327.35 83.36 L 325.33 85.28 L 323.22 87.16 L 321.09 88.98 L 319.01 90.76 L 317.02 92.50 L 315.18 94.18 L 313.53 95.81 L 312.09 97.36 L 310.89 98.81 L 309.94 100.15 L 309.22 101.34 L 308.71 102.36 L 308.40 103.18 L 308.23 103.79 L 308.17 104.16 L 308.16 104.28 L 308.15 104.16 L 308.09 103.79 L 307.92 103.18 L 307.61 102.36 L 307.10 101.34 L 306.38 100.15 L 305.43 98.81 L 304.23 97.36 L 302.79 95.81 L 301.14 94.18 L 299.30 92.50 L 297.31 90.76 L 295.23 88.98 L 293.10 87.16 L 290.99 85.28 L 288.97 83.36 L 287.09 81.38 L 285.43 79.34 L 284.02 77.24 L 282.92 75.09 L 282.16 72.90 L 281.78 70.69 L 281.78 68.50 L 282.16 66.37 L 282.92 64.32 L 284.02 62.43 L 285.43 60.72 L 287.09 59.25 L 288.97 58.07 L 290.99 57.20 L 293.10 56.68 L 295.23 56.51 L 297.31 56.68 L 299.30 57.18 L 301.14 57.98 L 302.79 59.02 L 304.23 60.25 L 305.43 61.59 L 306.38 62.96 L 307.10 64.29 L 307.61 65.50 L 307.92 66.52 L 308.09 67.29 L 308.15 67.78 Z" fill="#fff5fa" fill-opacity="0.82"/>
<path d="M 473.76 60.94 L 473.77 60.78 L 473.83 60.29 L 474.00 59.52 L 474.31 58.50 L 474.82 57.29 L 475.54 55.96 L 476.49 54.59 L 477.69 53.25 L 479.13 52.02 L 480.78 50.98 L 482.62 50.18 L 484.61 49.68 L 486.69 49.51 L 488.82 49.68 L 490.93 50.20 L 492.95 51.07 L 494.83 52.25 L 496.49 53.72 L 497.90 55.43 L 499.00 57.32 L 499.76 59.37 L 500.14 61.50 L 500.14 63.69 L 499.76 65.90 L 499.00 68.09 L 497.90 70.24 L 496.49 72.34 L 494.83 74.38 L 492.95 76.36 L 490.93 78.28 L 488.82 80.16 L 486.69 81.98 L 484.61 83.76 L 482.62 85.50 L 480.78 87.18 L 479.13 88.81 L 477.69 90.36 L 476.49 91.81 L 475.54 93.15 L 474.82 94.34 L 474.31 95.36 L 474.00 96.18 L 473.83 96.79 L 473.77 97.16 L 473.76 97.28 L 473.75 97.16 L 473.69 96.79 L 473.52 96.18 L 473.21 95.36 L 472.70 94.34 L 471.98 93.15 L 471.03 91.81 L 469.83 90.36 L 468.39 88.81 L 466.74 87.18 L 464.90 85.50 L 462.91 83.76 L 460.83 81.98 L 458.70 80.16 L 456.59 78.28 L 454.57 76.36 L 452.69 74.38 L 451.03 72.34 L 449.62 70.24 L 448.52 68.09 L 447.76 65.90 L 447.38 63.69 L 447.38 61.50 L 447.76 59.37 L 448.52 57.32 L 449.62 55.43 L 451.03 53.72 L 452.69 52.25 L 454.57 51.07 L 456.59 50.20 L 458.70 49.68 L 460.83 49.51 L 462.91 49.68 L 464.90 50.18 L 466.74 50.98 L 468.39 52.02 L 469.83 53.25 L 471.03 54.59 L 471.98 55.96 L 472.70 57.29 L 473.21 58.50 L 473.52 59.52 L 473.69 60.29 L 473.75 60.78 Z" fill="#fff5fa" fill-opacity="0.82"/>
<path d="M 639.36 67.94 L 639.37 67.78 L 639.43 67.29 L 639.60 66.52 L 639.91 65.50 L 640.42 64.29 L 641.14 62.96 L 642.09 61.59 L 643.29 60.25 L 644.73 59.02 L 646.38 57.98 L 648.22 57.18 L 650.21 56.68 L 652.29 56.51 L 654.42 56.68 L 656.53 57.20 L 658.55 58.07 L 660.43 59.25 L 662.09 60.72 L 663.50 62.43 L 664.60 64.32 L 665.36 66.37 L 665.74 68.50 L 665.74 70.69 L 665.36 72.90 L 664.60 75.09 L 663.50 77.24 L 662.09 79.34 L 660.43 81.38 L 658.55 83.36 L 656.53 85.28 L 654.42 87.16 L 652.29 88.98 L 650.21 90.76 L 648.22 92.50 L 646.38 94.18 L 644.73 95.81 L 643.29 97.36 L 642.09 98.81 L 641.14 100.15 L 640.42 101.34 L 639.91 102.36 L 639.60 103.18 L 639.43 103.79 L 639.37 104.16 L 639.36 104.28 L 639.35 104.16 L 639.29 103.79 L 639.12 103.18 L 638.81 102.36 L 638.30 101.34 L 637.58 100.15 L 636.63 98.81 L 635.43 97.36 L 633.99 95.81 L 632.34 94.18 L 630.50 92.50 L 628.51 90.76 L 626.43 88.98 L 624.30 87.16 L 622.19 85.28 L 620.17 83.36 L 618.29 81.38 L 616.63 79.34 L 615.22 77.24 L 614.12 75.09 L 613.36 72.90 L 612.98 70.69 L 612.98 68.50 L 613.36 66.37 L 614.12 64.32 L 615.22 62.43 L 616.63 60.72 L 618.29 59.25 L 620.17 58.07 L 622.19 57.20 L 624.30 56.68 L 626.43 56.51 L 628.51 56.68 L 630.50 57.18 L 632.34 57.98 L 633.99 59.02 L 635.43 60.25 L 636.63 61.59 L 637.58 62.96 L 638.30 64.29 L 638.81 65.50 L 639.12 66.52 L 639.29 67.29 L 639.35 67.78 Z" fill="#fff5fa" fill-opacity="0.82"/>
<path d="M 804.96 60.94 L 804.97 60.78 L 805.03 60.29 L 805.20 59.52 L 805.51 58.50 L 806.02 57.29 L 806.74 55.96 L 807.69 54.59 L 808.89 53.25 L 810.33 52.02 L 811.98 50.98 L 813.82 50.18 L 815.81 49.68 L 817.89 49.51 L 820.02 49.68 L 822.13 50.20 L 824.15 51.07 L 826.03 52.25 L 827.69 53.72 L 829.10 55.43 L 830.20 57.32 L 830.96 59.37 L 831.34 61.50 L 831.34 63.69 L 830.96 65.90 L 830.20 68.09 L 829.10 70.24 L 827.69 72.34 L 826.03 74.38 L 824.15 76.36 L 822.13 78.28 L 820.02 80.16 L 817.89 81.98 L 815.81 83.76 L 813.82 85.50 L 811.98 87.18 L 810.33 88.81 L 808.89 90.36 L 807.69 91.81 L 806.74 93.15 L 806.02 94.34 L 805.51 95.36 L 805.20 96.18 L 805.03 96.79 L 804.97 97.16 L 804.96 97.28 L 804.95 97.16 L 804.89 96.79 L 804.72 96.18 L 804.41 95.36 L 803.90 94.34 L 803.18 93.15 L 802.23 91.81 L 801.03 90.36 L 799.59 88.81 L 797.94 87.18 L 796.10 85.50 L 794.11 83.76 L 792.03 81.98 L 789.90 80.16 L 787.79 78.28 L 785.77 76.36 L 783.89 74.38 L 782.23 72.34 L 780.82 70.24 L 779.72 68.09 L 778.96 65.90 L 778.58 63.69 L 778.58 61.50 L 778.96 59.37 L 779.72 57.32 L 780.82 55.43 L 782.23 53.72 L 783.89 52.25 L 785.77 51.07 L 787.79 50.20 L 789.90 49.68 L 792.03 49.51 L 794.11 49.68 L 796.10 50.18 L 797.94 50.98 L 799.59 52.02 L 801.03 53.25 L 802.23 54.59 L 803.18 55.96 L 803.90 57.29 L 804.41 58.50 L 804.72 59.52 L 804.89 60.29 L 804.95 60.78 Z" fill="#fff5fa" fill-opacity="0.82"/>
<path d="M 970.56 67.94 L 970.57 67.78 L 970.63 67.29 L 970.80 66.52 L 971.11 65.50 L 971.62 64.29 L 972.34 62.96 L 973.29 61.59 L 974.49 60.25 L 975.93 59.02 L 977.58 57.98 L 979.42 57.18 L 981.41 56.68 L 983.49 56.51 L 985.62 56.68 L 987.73 57.20 L 989.75 58.07 L 991.63 59.25 L 993.29 60.72 L 994.70 62.43 L 995.80 64.32 L 996.56 66.37 L 996.94 68.50 L 996.94 70.69 L 996.56 72.90 L 995.80 75.09 L 994.70 77.24 L 993.29 79.34 L 991.63 81.38 L 989.75 83.36 L 987.73 85.28 L 985.62 87.16 L 983.49 88.98 L 981.41 90.76 L 979.42 92.50 L 977.58 94.18 L 975.93 95.81 L 974.49 97.36 L 973.29 98.81 L 972.34 100.15 L 971.62 101.34 L 971.11 102.36 L 970.80 103.18 L 970.63 103.79 L 970.57 104.16 L 970.56 104.28 L 970.55 104.16 L 970.49 103.79 L 970.32 103.18 L 970.01 102.36 L 969.50 101.34 L 968.78 100.15 L 967.83 98.81 L 966.63 97.36 L 965.19 95.81 L 963.54 94.18 L 961.70 92.50 L 959.71 90.76 L 957.63 88.98 L 955.50 87.16 L 953.39 85.28 L 951.37 83.36 L 949.49 81.38 L 947.83 79.34 L 946.42 77.24 L 945.32 75.09 L 944.56 72.90 L 944.18 70.69 L 944.18 68.50 L 944.56 66.37 L 945.32 64.32 L 946.42 62.43 L 947.83 60.72 L 949.49 59.25 L 951.37 58.07 L 953.39 57.20 L 955.50 56.68 L 957.63 56.51 L 959.71 56.68 L 961.70 57.18 L 963.54 57.98 L 965.19 59.02 L 966.63 60.25 L 967.83 61.59 L 968.78 62.96 L 969.50 64.29 L 970.01 65.50 L 970.32 66.52 L 970.49 67.29 L 970.55 67.78 Z" fill="#fff5fa" fill-opacity="0.82"/>
</svg>