<svg xmlns="http://www.w3.org/2000/svg" viewBox="0 0 1440 1080" width="1440" height="1080" fill="none">
<rect x="59.40" y="59.40" width="1321.20" height="961.20" stroke="#ffffff" stroke-opacity="0.95" stroke-width="59.40"/>
<rect x="59.40" y="901.80" width="1321.20" height="118.80" fill="#ffffff" fill-opacity="0.82"/>
<polygon points="89.40,83.40 297.00,59.40 263.00,129.60 59.40,141.60" fill="#f8d29e" fill-opacity="0.8"/>
<polygon points="1350.60,83.40 1143.00,59.40 1177.00,129.60 1380.60,141.60" fill="#f8d29e" fill-opacity="0.8"/>
<path d="M 720.00 938.96 L 720.02 938.52 L 720.19 937.22 L 720.64 935.14 L 721.49 932.39 L 722.85 929.13 L 724.79 925.55 L 727.36 921.85 L 730.59 918.25 L 734.45 914.95 L 738.90 912.15 L 743.85 910.00 L 749.20 908.65 L 754.82 908.18 L 760.54 908.64 L 766.22 910.06 L 771.66 912.39 L 776.71 915.58 L 781.21 919.53 L 785.00 924.12 L 787.96 929.23 L 789.99 934.72 L 791.02 940.48 L 791.02 946.37 L 789.99 952.30 L 787.96 958.20 L 785.00 963.99 L 781.21 969.65 L 776.71 975.14 L 771.66 980.48 L 766.22 985.66 L 760.54 990.70 L 754.82 995.61 L 749.20 1000.41 L 743.85 1005.08 L 738.90 1009.62 L 734.45 1013.99 L 730.59 1018.17 L 727.36 1022.08 L 724.79 1025.68 L 722.85 1028.88 L 721.49 1031.63 L 720.64 1033.84 L 720.19 1035.47 L 720.02 1036.46 L 720.00 1036.80 L 719.98 1036.46 L 719.81 1035.47 L 719.36 1033.84 L 718.51 1031.63 L 717.15 1028.88 L 715.21 1025.68 L 712.64 1022.08 L 709.41 1018.17 L 705.55 1013.99 L 701.10 1009.62 L 696.15 1005.08 L 690.80 1000.41 L 685.18 995.61 L 679.46 990.70 L 673.78 985.66 L 668.34 980.48 L 663.29 975.14 L 658.79 969.65 L 655.00 963.99 L 652.04 958.20 L 650.01 952.30 L 648.98 946.37 L 648.98 940.48 L 650.01 934.72 L 652.04 929.23 L 655.00 924.12 L 658.79 919.53 L 663.29 915.58 L 668.34 912.39 L 673.78 910.06 L 679.46 908.64 L 685.18 908.18 L 690.80 908.65 L 696.15 910.00 L 701.10 912.15 L 705.55 914.95 L 709.41 918.25 L 712.64 921.85 L 715.21 925.55 L 717.15 929.13 L 718.51 932.39 L 719.36 935.14 L 719.81 937.22 L 719.98 938.52 Z" fill="#ec5080" fill-opacity="0.85"/>
</svg>