<svg xmlns="http://www.w3.org/2000/svg" viewBox="0 0 1080 1440" width="1080" height="1440" fill="none">
<rect x="37.80" y="37.80" width="1004.40" height="1364.40" rx="45.36" stroke="#e9397b" stroke-width="13.23"/>
<rect x="75.60" y="75.60" width="928.80" height="1288.80" rx="41.58" stroke="#ffbfd6" stroke-width="6.80"/>
<path d="M 151.63 124.63 L 151.66 124.10 L 151.86 122.51 L 152.41 119.98 L 153.44 116.64 L 155.09 112.69 L 157.45 108.34 L 160.57 103.85 L 164.49 99.48 L 169.18 95.48 L 174.58 92.07 L 180.59 89.46 L 187.09 87.82 L 193.91 87.25 L 200.86 87.81 L 207.75 89.53 L 214.36 92.37 L 220.50 96.23 L 225.96 101.03 L 230.56 106.60 L 234.15 112.81 L 236.62 119.48 L 237.87 126.47 L 237.87 133.62 L 236.62 140.83 L 234.15 147.99 L 230.56 155.02 L 225.96 161.89 L 220.50 168.56 L 214.36 175.04 L 207.75 181.33 L 200.86 187.45 L 193.91 193.42 L 187.09 199.24 L 180.59 204.91 L 174.58 210.42 L 169.18 215.74 L 164.49 220.81 L 160.57 225.56 L 157.45 229.93 L 155.09 233.82 L 153.44 237.15 L 152.41 239.84 L 151.86 241.82 L 151.66 243.03 L 151.63 243.43 L 151.60 243.03 L 151.40 241.82 L 150.86 239.84 L 149.82 237.15 L 148.18 233.82 L 145.82 229.93 L 142.69 225.56 L 138.77 220.81 L 134.09 215.74 L 128.69 210.42 L 122.67 204.91 L 116.17 199.24 L 109.35 193.42 L 102.40 187.45 L 95.51 181.33 L 88.90 175.04 L 82.76 168.56 L 77.31 161.89 L 72.70 155.02 L 69.11 147.99 L 66.64 140.83 L 65.39 133.62 L 65.39 126.47 L 66.64 119.48 L 69.11 112.81 L 72.70 106.60 L 77.31 101.03 L 82.76 96.23 L 88.90 92.37 L 95.51 89.53 L 102.40 87.81 L 109.35 87.25 L 116.17 87.82 L 122.67 89.46 L 128.69 92.07 L 134.09 95.48 L 138.77 99.48 L 142.69 103.85 L 145.82 108.34 L 148.18 112.69 L 149.82 116.64 L 150.86 119.98 L 151.40 122.51 L 151.60 124.10 Z" fill="#ff5f94" fill-opacity="0.85"/>
<path d="M 928.37 124.63 L 928.40 124.10 L 928.60 122.51 L 929.14 119.98 L 930.18 116.64 L 931.82 112.69 L 934.18 108.34 L 937.31 103.85 L 941.23 99.48 L 945.91 95.48 L 951.31 92.07 L 957.33 89.46 L 963.83 87.82 L 970.65 87.25 L 977.60 87.81 L 984.49 89.53 L 991.10 92.37 L 997.24 96.23 L 1002.69 101.03 L 1007.30 106.60 L 1010.89 112.81 L 1013.36 119.48 L 1014.61 126.47 L 1014.61 133.62 L 1013.36 140.83 L 1010.89 147.99 L 1007.30 155.02 L 1002.69 161.89 L 997.24 168.56 L 991.10 175.04 L 984.49 181.33 L 977.60 187.45 L 970.65 193.42 L 963.83 199.24 L 957.33 204.91 L 951.31 210.42 L 945.91 215.74 L 941.23 220.81 L 937.31 225.56 L 934.18 229.93 L 931.82 233.82 L 930.18 237.15 L 929.14 239.84 L 928.60 241.82 L 928.40 243.03 L 928.37 243.43 L 928.34 243.03 L 928.14 241.82 L 927.59 239.84 L 926.56 237.15 L 924.91 233.82 L 922.55 229.93 L 919.43 225.56 L 915.51 220.81 L 910.82 215.74 L 905.42 210.42 L 899.41 204.91 L 892.91 199.24 L 886.09 193.42 L 879.14 187.45 L 872.25 181.33 L 865.64 175.04 L 859.50 168.56 L 854.04 161.89 L 849.44 155.02 L 845.85 147.99 L 843.38 140.83 L 842.13 133.62 L 842.13 126.47 L 843.38 119.48 L 845.85 112.81 L 849.44 106.60 L 854.04 101.03 L 859.50 96.23 L 865.64 92.37 L 872.25 89.53 L 879.14 87.81 L 886.09 87.25 L 892.91 87.82 L 899.41 89.46 L 905.42 92.07 L 910.82 95.48 L 915.51 99.48 L 919.43 103.85 L 922.55 108.34 L 924.91 112.69 L 926.56 116.64 L 927.59 119.98 L 928.14 122.51 L 928.34 124.10 Z" fill="#ff5f94" fill-opacity="0.85"/>
<path d="M 151.63 1261.37 L 151.66 1260.83 L 151.86 1259.25 L 152.41 1256.72 L 153.44 1253.38 L 155.09 1249.42 L 157.45 1245.08 L 160.57 1240.59 L 164.49 1236.22 L 169.18 1232.21 L 174.58 1228.81 L 180.59 1226.20 L 187.09 1224.55 L 193.91 1223.98 L 200.86 1224.55 L 207.75 1226.27 L 214.36 1229.10 L 220.50 1232.97 L 225.96 1237.76 L 230.56 1243.34 L 234.15 1249.54 L 236.62 1256.22 L 237.87 1263.20 L 237.87 1270.36 L 236.62 1277.57 L 234.15 1284.72 L 230.56 1291.76 L 225.96 1298.62 L 220.50 1305.30 L 214.36 1311.78 L 207.75 1318.07 L 200.86 1324.19 L 193.91 1330.15 L 187.09 1335.97 L 180.59 1341.65 L 174.58 1347.16 L 169.18 1352.47 L 164.49 1357.54 L 160.57 1362.30 L 157.45 1366.66 L 155.09 1370.56 L 153.44 1373.89 L 152.41 1376.58 L 151.86 1378.55 L 151.66 1379.76 L 151.63 1380.17 L 151.60 1379.76 L 151.40 1378.55 L 150.86 1376.58 L 149.82 1373.89 L 148.18 1370.56 L 145.82 1366.66 L 142.69 1362.30 L 138.77 1357.54 L 134.09 1352.47 L 128.69 1347.16 L 122.67 1341.65 L 116.17 1335.97 L 109.35 1330.15 L 102.40 1324.19 L 95.51 1318.07 L 88.90 1311.78 L 82.76 1305.30 L 77.31 1298.62 L 72.70 1291.76 L 69.11 1284.72 L 66.64 1277.57 L 65.39 1270.36 L 65.39 1263.20 L 66.64 1256.22 L 69.11 1249.54 L 72.70 1243.34 L 77.31 1237.76 L 82.76 1232.97 L 88.90 1229.10 L 95.51 1226.27 L 102.40 1224.55 L 109.35 1223.98 L 116.17 1224.55 L 122.67 1226.20 L 128.69 1228.81 L 134.09 1232.21 L 138.77 1236.22 L 142.69 1240.59 L 145.82 1245.08 L 148.18 1249.42 L 149.82 1253.38 L 150.86 1256.72 L 151.40 1259.25 L 151.60 1260.83 Z" fill="#ff5f94" fill-opacity="0.85"/>
<path d="M 928.37 1261.37 L 928.40 1260.83 L 928.60 1259.25 L 929.14 1256.72 L 930.18 1253.38 L 931.82 1249.42 L 934.18 1245.08 L 937.31 1240.59 L 941.23 1236.22 L 945.91 1232.21 L 951.31 1228.81 L 957.33 1226.20 L 963.83 1224.55 L 970.65 1223.98 L 977.60 1224.55 L 984.49 1226.27 L 991.10 1229.10 L 997.24 1232.97 L 1002.69 1237.76 L 1007.30 1243.34 L 1010.89 1249.54 L 1013.36 1256.22 L 1014.61 1263.20 L 1014.61 1270.36 L 1013.36 1277.57 L 1010.89 1284.72 L 1007.30 1291.76 L 1002.69 1298.62 L 997.24 1305.30 L 991.10 1311.78 L 984.49 1318.07 L 977.60 1324.19 L 970.65 1330.15 L 963.83 1335.97 L 957.33 1341.65 L 951.31 1347.16 L 945.91 1352.47 L 941.23 1357.54 L 937.31 1362.30 L 934.18 1366.66 L 931.82 1370.56 L 930.18 1373.89 L 929.14 1376.58 L 928.60 1378.55 L 928.40 1379.76 L 928.37 1380.17 L 928.34 1379.76 L 928.14 1378.55 L 927.59 1376.58 L 926.56 1373.89 L 924.91 1370.56 L 922.55 1366.66 L 919.43 1362.30 L 915.51 1357.54 L 910.82 1352.47 L 905.42 1347.16 L 899.41 1341.65 L 892.91 1335.97 L 886.09 1330.15 L 879.14 1324.19 L 872.25 1318.07 L 865.64 1311.78 L 859.50 1305.30 L 854.04 1298.62 L 849.44 1291.76 L 845.85 1284.72 L 843.38 1277.57 L 842.13 1270.36 L 842.13 1263.20 L 843.38 1256.22 L 845.85 1249.54 L 849.44 1243.34 L 854.04 1237.76 L 859.50 1232.97 L 865.64 1229.10 L 872.25 1226.27 L 879.14 1224.55 L 886.09 1223.98 L 892.91 1224.55 L 899.41 1226.20 L 905.42 1228.81 L 910.82 1232.21 L 915.51 1236.22 L 919.43 1240.59 L 922.55 1245.08 L 924.91 1249.42 L 926.56 1253.38 L 927.59 1256.72 L 928.14 1259.25 L 928.34 1260.83 Z" fill="#ff5f94" fill-opacity="0.85"/>
<path d="M 113.40 68.58 L 113.41 68.46 L 113.45 68.11 L 113.57 67.56 L 113.80 66.82 L 114.16 65.95 L 114.68 65.00 L 115.37 64.01 L 116.23 63.05 L 117.26 62.17 L 118.45 61.42 L 119.77 60.84 L 121.20 60.48 L 122.70 60.36 L 124.23 60.48 L 125.75 60.86 L 127.20 61.48 L 128.55 62.33 L 129.75 63.39 L 130.76 64.61 L 131.55 65.98 L 132.10 67.45 L 132.37 68.98 L 132.37 70.56 L 132.10 72.14 L 131.55 73.72 L 130.76 75.27 L 129.75 76.78 L 128.55 78.24 L 127.20 79.67 L 125.75 81.05 L 124.23 82.40 L 122.70 83.71 L 121.20 84.99 L 119.77 86.24 L 118.45 87.45 L 117.26 88.62 L 116.23 89.74 L 115.37 90.78 L 114.68 91.75 L 114.16 92.60 L 113.80 93.33 L 113.57 93.93 L 113.45 94.36 L 113.41 94.63 L 113.40 94.72 L 113.39 94.63 L 113.35 94.36 L 113.23 93.93 L 113.00 93.33 L 112.64 92.60 L 112.12 91.75 L 111.43 90.78 L 110.57 89.74 L 109.54 88.62 L 108.35 87.45 L 107.03 86.24 L 105.60 84.99 L 104.10 83.71 L 102.57 82.40 L 101.05 81.05 L 99.60 79.67 L 98.25 78.24 L 97.05 76.78 L 96.04 75.27 L 95.25 73.72 L 94.70 72.14 L 94.43 70.56 L 94.43 68.98 L 94.70 67.45 L 95.25 65.98 L 96.04 64.61 L 97.05 63.39 L 98.25 62.33 L 99.60 61.48 L 101.05 60.86 L 102.57 60.48 L 104.10 60.36 L 105.60 60.48 L 107.03 60.84 L 108.35 61.42 L 109.54 62.17 L 110.57 63.05 L 111.43 64.01 L 112.12 65.00 L 112.64 65.95 L 113.00 66.82 L 113.23 67.56 L 113.35 68.11 L 113.39 68.46 Z" fill="#ffa6c5" fill-opacity="0.75"/>
<path d="M 208.20 114.48 L 208.21 114.36 L 208.25 114.01 L 208.37 113.46 L 208.60 112.72 L 208.96 111.85 L 209.48 110.90 L 210.17 109.91 L 211.03 108.95 L 212.06 108.07 L 213.25 107.32 L 214.57 106.74 L 216.00 106.38 L 217.50 106.26 L 219.03 106.38 L 220.55 106.76 L 222.00 107.38 L 223.35 108.23 L 224.55 109.29 L 225.56 110.51 L 226.35 111.88 L 226.90 113.35 L 227.17 114.88 L 227.17 116.46 L 226.90 118.04 L 226.35 119.62 L 225.56 121.17 L 224.55 122.68 L 223.35 124.14 L 222.00 125.57 L 220.55 126.95 L 219.03 128.30 L 217.50 129.61 L 216.00 130.89 L 214.57 132.14 L 213.25 133.35 L 212.06 134.52 L 211.03 135.64 L 210.17 136.68 L 209.48 137.65 L 208.96 138.50 L 208.60 139.23 L 208.37 139.83 L 208.25 140.26 L 208.21 140.53 L 208.20 140.62 L 208.19 140.53 L 208.15 140.26 L 208.03 139.83 L 207.80 139.23 L 207.44 138.50 L 206.92 137.65 L 206.23 136.68 L 205.37 135.64 L 204.34 134.52 L 203.15 133.35 L 201.83 132.14 L 200.40 130.89 L 198.90 129.61 L 197.37 128.30 L 195.85 126.95 L 194.40 125.57 L 193.05 124.14 L 191.85 122.68 L 190.84 121.17 L 190.05 119.62 L 189.50 118.04 L 189.23 116.46 L 189.23 114.88 L 189.50 113.35 L 190.05 111.88 L 190.84 110.51 L 191.85 109.29 L 193.05 108.23 L 194.40 107.38 L 195.85 106.76 L 197.37 106.38 L 198.90 106.26 L 200.40 106.38 L 201.83 106.74 L 203.15 107.32 L 204.34 108.07 L 205.37 108.95 L 206.23 109.91 L 206.92 110.90 L 207.44 111.85 L 207.80 112.72 L 208.03 113.46 L 208.15 114.01 L 208.19 114.36 Z" fill="#ffa6c5" fill-opacity="0.75"/>
<path d="M 303.00 68.58 L 303.01 68.46 L 303.05 68.11 L 303.17 67.56 L 303.40 66.82 L 303.76 65.95 L 304.28 65.00 L 304.97 64.01 L 305.83 63.05 L 306.86 62.17 L 308.05 61.42 L 309.37 60.84 L 310.80 60.48 L 312.30 60.36 L 313.83 60.48 L 315.35 60.86 L 316.80 61.48 L 318.15 62.33 L 319.35 63.39 L 320.36 64.61 L 321.15 65.98 L 321.70 67.45 L 321.97 68.98 L 321.97 70.56 L 321.70 72.14 L 321.15 73.72 L 320.36 75.27 L 319.35 76.78 L 318.15 78.24 L 316.80 79.67 L 315.35 81.05 L 313.83 82.40 L 312.30 83.71 L 310.80 84.99 L 309.37 86.24 L 308.05 87.45 L 306.86 88.62 L 305.83 89.74 L 304.97 90.78 L 304.28 91.75 L 303.76 92.60 L 303.40 93.33 L 303.17 93.93 L 303.05 94.36 L 303.01 94.63 L 303.00 94.72 L 302.99 94.63 L 302.95 94.36 L 302.83 93.93 L 302.60 93.33 L 302.24 92.60 L 301.72 91.75 L 301.03 90.78 L 300.17 89.74 L 299.14 88.62 L 297.95 87.45 L 296.63 86.24 L 295.20 84.99 L 293.70 83.71 L 292.17 82.40 L 290.65 81.05 L 289.20 79.67 L 287.85 78.24 L 286.65 76.78 L 285.64 75.27 L 284.85 73.72 L 284.30 72.14 L 284.03 70.56 L 284.03 68.98 L 284.30 67.45 L 284.85 65.98 L 285.64 64.61 L 286.65 63.39 L 287.85 62.33 L 289.20 61.48 L 290.65 60.86 L 292.17 60.48 L 293.70 60.36 L 295.20 60.48 L 296.63 60.84 L 297.95 61.42 L 299.14 62.17 L 300.17 63.05 L 301.03 64.01 L 301.72 65.00 L 302.24 65.95 L 302.60 66.82 L 302.83 67.56 L 302.95 68.11 L 302.99 68.46 Z" fill="#ffa6c5" fill-opacity="0.75"/>
<path d="M 397.80 114.48 L 397.81 114.36 L 397.85 114.01 L 397.97 113.46 L 398.20 112.72 L 398.56 111.85 L 399.08 110.90 L 399.77 109.91 L 400.63 108.95 L 401.66 108.07 L 402.85 107.32 L 404.17 106.74 L 405.60 106.38 L 407.10 106.26 L 408.63 106.38 L 410.15 106.76 L 411.60 107.38 L 412.95 108.23 L 414.15 109.29 L 415.16 110.51 L 415.95 111.88 L 416.50 113.35 L 416.77 114.88 L 416.77 116.46 L 416.50 118.04 L 415.95 119.62 L 415.16 121.17 L 414.15 122.68 L 412.95 124.14 L 411.60 125.57 L 410.15 126.95 L 408.63 128.30 L 407.10 129.61 L 405.60 130.89 L 404.17 132.14 L 402.85 133.35 L 401.66 134.52 L 400.63 135.64 L 399.77 136.68 L 399.08 137.65 L 398.56 138.50 L 398.20 139.23 L 397.97 139.83 L 397.85 140.26 L 397.81 140.53 L 397.80 140.62 L 397.79 140.53 L 397.75 140.26 L 397.63 139.83 L 397.40 139.23 L 397.04 138.50 L 396.52 137.65 L 395.83 136.68 L 394.97 135.64 L 393.94 134.52 L 392.75 133.35 L 391.43 132.14 L 390.00 130.89 L 388.50 129.61 L 386.97 128.30 L 385.45 126.95 L 384.00 125.57 L 382.65 124.14 L 381.45 122.68 L 380.44 121.17 L 379.65 119.62 L 379.10 118.04 L 378.83 116.46 L 378.83 114.88 L 379.10 113.35 L 379.65 111.88 L 380.44 110.51 L 381.45 109.29 L 382.65 108.23 L 384.00 107.38 L 385.45 106.76 L 386.97 106.38 L 388.50 106.26 L 390.00 106.38 L 391.43 106.74 L 392.75 107.32 L 393.94 108.07 L 394.97 108.95 L 395.83 109.91 L 396.52 110.90 L 397.04 111.85 L 397.40 112.72 L 397.63 113.46 L 397.75 114.01 L 397.79 114.36 Z" fill="#ffa6c5" fill-opacity="0.75"/>
<path d="M 492.60 68.58 L 492.61 68.46 L 492.65 68.11 L 492.77 67.56 L 493.00 66.82 L 493.36 65.95 L 493.88 65.00 L 494.57 64.01 L 495.43 63.05 L 496.46 62.17 L 497.65 61.42 L 498.97 60.84 L 500.40 60.48 L 501.90 60.36 L 503.43 60.48 L 504.95 60.86 L 506.40 61.48 L 507.75 62.33 L 508.95 63.39 L 509.96 64.61 L 510.75 65.98 L 511.30 67.45 L 511.57 68.98 L 511.57 70.56 L 511.30 72.14 L 510.75 73.72 L 509.96 75.27 L 508.95 76.78 L 507.75 78.24 L 506.40 79.67 L 504.95 81.05 L 503.43 82.40 L 501.90 83.71 L 500.40 84.99 L 498.97 86.24 L 497.65 87.45 L 496.46 88.62 L 495.43 89.74 L 494.57 90.78 L 493.88 91.75 L 493.36 92.60 L 493.00 93.33 L 492.77 93.93 L 492.65 94.36 L 492.61 94.63 L 492.60 94.72 L 492.59 94.63 L 492.55 94.36 L 492.43 93.93 L 492.20 93.33 L 491.84 92.60 L 491.32 91.75 L 490.63 90.78 L 489.77 89.74 L 488.74 88.62 L 487.55 87.45 L 486.23 86.24 L 484.80 84.99 L 483.30 83.71 L 481.77 82.40 L 480.25 81.05 L 478.80 79.67 L 477.45 78.24 L 476.25 76.78 L 475.24 75.27 L 474.45 73.72 L 473.90 72.14 L 473.63 70.56 L 473.63 68.98 L 473.90 67.45 L 474.45 65.98 L 475.24 64.61 L 476.25 63.39 L 477.45 62.33 L 478.80 61.48 L 480.25 60.86 L 481.77 60.48 L 483.30 60.36 L 484.80 60.48 L 486.23 60.84 L 487.55 61.42 L 488.74 62.17 L 489.77 63.05 L 490.63 64.01 L 491.32 65.00 L 491.84 65.95 L 492.20 66.82 L 492.43 67.56 L 492.55 68.11 L 492.59 68.46 Z" fill="#ffa6c5" fill-opacity="0.75"/>
<path d="M 587.40 114.48 L 587.41 114.36 L 587.45 114.01 L 587.57 113.46 L 587.80 112.72 L 588.16 111.85 L 588.68 110.90 L 589.37 109.91 L 590.23 108.95 L 591.26 108.07 L 592.45 107.32 L 593.77 106.74 L 595.20 106.38 L 596.70 106.26 L 598.23 106.38 L 599.75 106.76 L 601.20 107.38 L 602.55 108.23 L 603.75 109.29 L 604.76 110.51 L 605.55 111.88 L 606.10 113.35 L 606.37 114.88 L 606.37 116.46 L 606.10 118.04 L 605.55 119.62 L 604.76 121.17 L 603.75 122.68 L 602.55 124.14 L 601.20 125.57 L 599.75 126.95 L 598.23 128.30 L 596.70 129.61 L 595.20 130.89 L 593.77 132.14 L 592.45 133.35 L 591.26 134.52 L 590.23 135.64 L 589.37 136.68 L 588.68 137.65 L 588.16 138.50 L 587.80 139.23 L 587.57 139.83 L 587.45 140.26 L 587.41 140.53 L 587.40 140.62 L 587.39 140.53 L 587.35 140.26 L 587.23 139.83 L 587.00 139.23 L 586.64 138.50 L 586.12 137.65 L 585.43 136.68 L 584.57 135.64 L 583.54 134.52 L 582.35 133.35 L 581.03 132.14 L 579.60 130.89 L 578.10 129.61 L 576.57 128.30 L 575.05 126.95 L 573.60 125.57 L 572.25 124.14 L 571.05 122.68 L 570.04 121.17 L 569.25 119.62 L 568.70 118.04 L 568.43 116.46 L 568.43 114.88 L 568.70 113.35 L 569.25 111.88 L 570.04 110.51 L 571.05 109.29 L 572.25 108.23 L 573.60 107.38 L 575.05 106.76 L 576.57 106.38 L 578.10 106.26 L 579.60 106.38 L 581.03 106.74 L 582.35 107.32 L 583.54 108.07 L 584.57 108.95 L 585.43 109.91 L 586.12 110.90 L 586.64 111.85 L 587.00 112.72 L 587.23 113.46 L 587.35 114.01 L 587.39 114.36 Z" fill="#ffa6c5" fill-opacity="0.75"/>
<path d="M 682.20 68.58 L 682.21 68.46 L 682.25 68.11 L 682.37 67.56 L 682.60 66.82 L 682.96 65.95 L 683.48 65.00 L 684.17 64.01 L 685.03 63.05 L 686.06 62.17 L 687.25 61.42 L 688.57 60.84 L 690.00 60.48 L 691.50 60.36 L 693.03 60.48 L 694.55 60.86 L 696.00 61.48 L 697.35 62.33 L 698.55 63.39 L 699.56 64.61 L 700.35 65.98 L 700.90 67.45 L 701.17 68.98 L 701.17 70.56 L 700.90 72.14 L 700.35 73.72 L 699.56 75.27 L 698.55 76.78 L 697.35 78.24 L 696.00 79.67 L 694.55 81.05 L 693.03 82.40 L 691.50 83.71 L 690.00 84.99 L 688.57 86.24 L 687.25 87.45 L 686.06 88.62 L 685.03 89.74 L 684.17 90.78 L 683.48 91.75 L 682.96 92.60 L 682.60 93.33 L 682.37 93.93 L 682.25 94.36 L 682.21 94.63 L 682.20 94.72 L 682.19 94.63 L 682.15 94.36 L 682.03 93.93 L 681.80 93.33 L 681.44 92.60 L 680.92 91.75 L 680.23 90.78 L 679.37 89.74 L 678.34 88.62 L 677.15 87.45 L 675.83 86.24 L 674.40 84.99 L 672.90 83.71 L 671.37 82.40 L 669.85 81.05 L 668.40 79.67 L 667.05 78.24 L 665.85 76.78 L 664.84 75.27 L 664.05 73.72 L 663.50 72.14 L 663.23 70.56 L 663.23 68.98 L 663.50 67.45 L 664.05 65.98 L 664.84 64.61 L 665.85 63.39 L 667.05 62.33 L 668.40 61.48 L 669.85 60.86 L 671.37 60.48 L 672.90 60.36 L 674.40 60.48 L 675.83 60.84 L 677.15 61.42 L 678.34 62.17 L 679.37 63.05 L 680.23 64.01 L 680.92 65.00 L 681.44 65.95 L 681.80 66.82 L 682.03 67.56 L 682.15 68.11 L 682.19 68.46 Z" fill="#ffa6c5" fill-opacity="0.75"/>
<path d="M 777.00 114.48 L 777.01 114.36 L 777.05 114.01 L 777.17 113.46 L 777.40 112.72 L 777.76 111.85 L 778.28 110.90 L 778.97 109.91 L 779.83 108.95 L 780.86 108.07 L 782.05 107.32 L 783.37 106.74 L 784.80 106.38 L 786.30 106.26 L 787.83 106.38 L 789.35 106.76 L 790.80 107.38 L 792.15 108.23 L 793.35 109.29 L 794.36 110.51 L 795.15 111.88 L 795.70 113.35 L 795.97 114.88 L 795.97 116.46 L 795.70 118.04 L 795.15 119.62 L 794.36 121.17 L 793.35 122.68 L 792.15 124.14 L 790.80 125.57 L 789.35 126.95 L 787.83 128.30 L 786.30 129.61 L 784.80 130.89 L 783.37 132.14 L 782.05 133.35 L 780.86 134.52 L 779.83 135.64 L 778.97 136.68 L 778.28 137.65 L 777.76 138.50 L 777.40 139.23 L 777.17 139.83 L 777.05 140.26 L 777.01 140.53 L 777.00 140.62 L 776.99 140.53 L 776.95 140.26 L 776.83 139.83 L 776.60 139.23 L 776.24 138.50 L 775.72 137.65 L 775.03 136.68 L 774.17 135.64 L 773.14 134.52 L 771.95 133.35 L 770.63 132.14 L 769.20 130.89 L 767.70 129.61 L 766.17 128.30 L 764.65 126.95 L 763.20 125.57 L 761.85 124.14 L 760.65 122.68 L 759.64 121.17 L 758.85 119.62 L 758.30 118.04 L 758.03 116.46 L 758.03 114.88 L 758.30 113.35 L 758.85 111.88 L 759.64 110.51 L 760.65 109.29 L 761.85 108.23 L 763.20 107.38 L 764.65 106.76 L 766.17 106.38 L 767.70 106.26 L 769.20 106.38 L 770.63 106.74 L 771.95 107.32 L 773.14 108.07 L 774.17 108.95 L 775.03 109.91 L 775.72 110.90 L 776.24 111.85 L 776.60 112.72 L 776.83 113.46 L 776.95 114.01 L 776.99 114.36 Z" fill="#ffa6c5" fill-opacity="0.75"/>
<path d="M 871.80 68.58 L 871.81 68.46 L 871.85 68.11 L 871.97 67.56 L 872.20 66.82 L 872.56 65.95 L 873.08 65.00 L 873.77 64.01 L 874.63 63.05 L 875.66 62.17 L 876.85 61.42 L 878.17 60.84 L 879.60 60.48 L 881.10 60.36 L 882.63 60.48 L 884.15 60.86 L 885.60 61.48 L 886.95 62.33 L 888.15 63.39 L 889.16 64.61 L 889.95 65.98 L 890.50 67.45 L 890.77 68.98 L 890.77 70.56 L 890.50 72.14 L 889.95 73.72 L 889.16 75.27 L 888.15 76.78 L 886.95 78.24 L 885.60 79.67 L 884.15 81.05 L 882.63 82.40 L 881.10 83.71 L 879.60 84.99 L 878.17 86.24 L 876.85 87.45 L 875.66 88.62 L 874.63 89.74 L 873.77 90.78 L 873.08 91.75 L 872.56 92.60 L 872.20 93.33 L 871.97 93.93 L 871.85 94.36 L 871.81 94.63 L 871.80 94.72 L 871.79 94.63 L 871.75 94.36 L 871.63 93.93 L 871.40 93.33 L 871.04 92.60 L 870.52 91.75 L 869.83 90.78 L 868.97 89.74 L 867.94 88.62 L 866.75 87.45 L 865.43 86.24 L 864.00 84.99 L 862.50 83.71 L 860.97 82.40 L 859.45 81.05 L 858.00 79.67 L 856.65 78.24 L 855.45 76.78 L 854.44 75.27 L 853.65 73.72 L 853.10 72.14 L 852.83 70.56 L 852.83 68.98 L 853.10 67.45 L 853.65 65.98 L 854.44 64.61 L 855.45 63.39 L 856.65 62.33 L 858.00 61.48 L 859.45 60.86 L 860.97 60.48 L 862.50 60.36 L 864.00 60.48 L 865.43 60.84 L 866.75 61.42 L 867.94 62.17 L 868.97 63.05 L 869.83 64.01 L 870.52 65.00 L 871.04 65.95 L 871.40 66.82 L 871.63 67.56 L 871.75 68.11 L 871.79 68.46 Z" fill="#ffa6c5" fill-opacity="0.75"/>
<path d="M 966.60 114.48 L 966.61 114.36 L 966.65 114.01 L 966.77 113.46 L 967.00 112.72 L 967.36 111.85 L 967.88 110.90 L 968.57 109.91 L 969.43 108.95 L 970.46 108.07 L 971.65 107.32 L 972.97 106.74 L 974.40 106.38 L 975.90 106.26 L 977.43 106.38 L 978.95 106.76 L 980.40 107.38 L 981.75 108.23 L 982.95 109.29 L 983.96 110.51 L 984.75 111.88 L 985.30 113.35 L 985.57 114.88 L 985.57 116.46 L 985.30 118.04 L 984.75 119.62 L 983.96 121.17 L 982.95 122.68 L 981.75 124.14 L 980.40 125.57 L 978.95 126.95 L 977.43 128.30 L 975.90 129.61 L 974.40 130.89 L 972.97 132.14 L 971.65 133.35 L 970.46 134.52 L 969.43 135.64 L 968.57 136.68 L 967.88 137.65 L 967.36 138.50 L 967.00 139.23 L 966.77 139.83 L 966.65 140.26 L 966.61 140.53 L 966.60 140.62 L 966.59 140.53 L 966.55 140.26 L 966.43 139.83 L 966.20 139.23 L 965.84 138.50 L 965.32 137.65 L 964.63 136.68 L 963.77 135.64 L 962.74 134.52 L 961.55 133.35 L 960.23 132.14 L 958.80 130.89 L 957.30 129.61 L 955.77 128.30 L 954.25 126.95 L 952.80 125.57 L 951.45 124.14 L 950.25 122.68 L 949.24 121.17 L 948.45 119.62 L 947.90 118.04 L 947.63 116.46 L 947.63 114.88 L 947.90 113.35 L 948.45 111.88 L 949.24 110.51 L 950.25 109.29 L 951.45 108.23 L 952.80 107.38 L 954.25 106.76 L 955.77 106.38 L 957.30 106.26 L 958.80 106.38 L 960.23 106.74 L 961.55 107.32 L 962.74 108.07 L 963.77 108.95 L 964.63 109.91 L 965.32 110.90 L 965.84 111.85 L 966.20 112.72 L 966.43 113.46 L 966.55 114.01 L 966.59 114.36 Z" fill="#ffa6c5" fill-opacity="0.75"/>
</svg>