<svg xmlns="http://www.w3.org/2000/svg" viewBox="0 0 1080 1440" fill="none">
  <rect x="24" y="24" width="1032" height="1392" rx="74" stroke="#ff4f8f" stroke-width="34"/>
  <rect x="58" y="58" width="964" height="1324" rx="54" stroke="#ff9bbb" stroke-width="8" stroke-dasharray="12 18"/>
  <g fill="#ff4f8f" opacity="0.9">
    <path d="M130 110c0-22 18-40 40-40 14 0 26 7 33 19 7-12 19-19 33-19 22 0 40 18 40 40 0 45-73 83-73 83s-73-38-73-83z"/>
    <path d="M950 110c0-22-18-40-40-40-14 0-26 7-33 19-7-12-19-19-33-19-22 0-40 18-40 40 0 45 73 83 73 83s73-38 73-83z"/>
    <path d="M130 1330c0 22 18 40 40 40 14 0 26-7 33-19 7 12 19 19 33 19 22 0 40-18 40-40 0-45-73-83-73-83s-73 38-73 83z"/>
    <path d="M950 1330c0 22-18 40-40 40-14 0-26-7-33-19-7 12-19 19-33 19-22 0-40-18-40-40 0-45 73-83 73-83s73 38 73 83z"/>
  </g>
</svg>
