<svg xmlns="http://www.w3.org/2000/svg" viewBox="0 0 1440 1080" width="1440" height="1080" fill="none">
<rect x="0" y="0" width="1440" height="151.20" fill="#2a2328" fill-opacity="0.85"/>
<rect x="0" y="928.80" width="1440" height="151.20" fill="#2a2328" fill-opacity="0.85"/>
<rect x="8.73" y="33.26" width="42.18" height="84.67" rx="5" fill="#f8ecf1"/>
<rect x="8.73" y="962.06" width="42.18" height="84.67" rx="5" fill="#f8ecf1"/>
<rect x="88.73" y="33.26" width="42.18" height="84.67" rx="5" fill="#f8ecf1"/>
<rect x="88.73" y="962.06" width="42.18" height="84.67" rx="5" fill="#f8ecf1"/>
<rect x="168.73" y="33.26" width="42.18" height="84.67" rx="5" fill="#f8ecf1"/>
<rect x="168.73" y="962.06" width="42.18" height="84.67" rx="5" fill="#f8ecf1"/>
<rect x="248.73" y="33.26" width="42.18" height="84.67" rx="5" fill="#f8ecf1"/>
<rect x="248.73" y="962.06" width="42.18" height="84.67" rx="5" fill="#f8ecf1"/>
<rect x="328.73" y="33.26" width="42.18" height="84.67" rx="5" fill="#f8ecf1"/>
<rect x="328.73" y="962.06" width="42.18" height="84.67" rx="5" fill="#f8ecf1"/>
<rect x="408.73" y="33.26" width="42.18" height="84.67" rx="5" fill="#f8ecf1"/>
<rect x="408.73" y="962.06" width="42.18" height="84.67" rx="5" fill="#f8ecf1"/>
<rect x="488.73" y="33.26" width="42.18" height="84.67" rx="5" fill="#f8ecf1"/>
<rect x="488.73" y="962.06" width="42.18" height="84.67" rx="5" fill="#f8ecf1"/>
<rect x="568.73" y="33.26" width="42.18" height="84.67" rx="5" fill="#f8ecf1"/>
<rect x="568.73" y="962.06" width="42.18" height="84.67" rx="5" fill="#f8ecf1"/>
<rect x="648.73" y="33.26" width="42.18" height="84.67" rx="5" fill="#f8ecf1"/>
<rect x="648.73" y="962.06" width="42.18" height="84.67" rx="5" fill="#f8ecf1"/>
<rect x="728.73" y="33.26" width="42.18" height="84.67" rx="5" fill="#f8ecf1"/>
<rect x="728.73" y="962.06" width="42.18" height="84.67" rx="5" fill="#f8ecf1"/>
<rect x="808.73" y="33.26" width="42.18" height="84.67" rx="5" fill="#f8ecf1"/>
<rect x="808.73" y="962.06" width="42.18" height="84.67" rx="5" fill="#f8ecf1"/>
<rect x="888.73" y="33.26" width="42.18" height="84.67" rx="5" fill="#f8ecf1"/>
<rect x="888.73" y="962.06" width="42.18" height="84.67" rx="5" fill="#f8ecf1"/>
<rect x="968.73" y="33.26" width="42.18" height="84.67" rx="5" fill="#f8ecf1"/>
<rect x="968.73" y="962.06" width="42.18" height="84.67" rx="5" fill="#f8ecf1"/>
<rect x="1048.73" y="33.26" width="42.18" height="84.67" rx="5" fill="#f8ecf1"/>
<rect x="1048.73" y="962.06" width="42.18" height="84.67" rx="5" fill="#f8ecf1"/>
<rect x="1128.73" y="33.26" width="42.18" height="84.67" rx="5" fill="#f8ecf1"/>
<rect x="1128.73" y="962.06" width="42.18" height="84.67" rx="5" fill="#f8ecf1"/>
<rect x="1208.73" y="33.26" width="42.18" height="84.67" rx="5" fill="#f8ecf1"/>
<rect x="1208.73" y="962.06" width="42.18" height="84.67" rx="5" fill="#f8ecf1"/>
<rect x="1288.73" y="33.26" width="42.18" height="84.67" rx="5" fill="#f8ecf1"/>
<rect x="1288.73" y="962.06" width="42.18" height="84.67" rx="5" fill="#f8ecf1"/>
<rect x="1368.73" y="33.26" width="42.18" height="84.67" rx="5" fill="#f8ecf1"/>
<rect x="1368.73" y="962.06" width="42.18" height="84.67" rx="5" fill="#f8ecf1"/>
<rect x="54.00" y="54.00" width="1332.00" height="972.00" rx="18" stroke="#ff6fa6" stroke-opacity="0.75" stroke-width="5"/>
</svg>