<svg xmlns="http://www.w3.org/2000/svg" viewBox="0 0 1080 1440" width="1080" height="1440" fill="none">
<rect x="0" y="0" width="1080" height="151.20" fill="#2a2328" fill-opacity="0.85"/>
<rect x="0" y="1288.80" width="1080" height="151.20" fill="#2a2328" fill-opacity="0.85"/>
<rect x="9.82" y="33.26" width="47.45" height="84.67" rx="5" fill="#f8ecf1"/>
<rect x="9.82" y="1322.06" width="47.45" height="84.67" rx="5" fill="#f8ecf1"/>
<rect x="99.82" y="33.26" width="47.45" height="84.67" rx="5" fill="#f8ecf1"/>
<rect x="99.82" y="1322.06" width="47.45" height="84.67" rx="5" fill="#f8ecf1"/>
<rect x="189.82" y="33.26" width="47.45" height="84.67" rx="5" fill="#f8ecf1"/>
<rect x="189.82" y="1322.06" width="47.45" height="84.67" rx="5" fill="#f8ecf1"/>
<rect x="279.82" y="33.26" width="47.45" height="84.67" rx="5" fill="#f8ecf1"/>
<rect x="279.82" y="1322.06" width="47.45" height="84.67" rx="5" fill="#f8ecf1"/>
<rect x="369.82" y="33.26" width="47.45" height="84.67" rx="5" fill="#f8ecf1"/>
<rect x="369.82" y="1322.06" width="47.45" height="84.67" rx="5" fill="#f8ecf1"/>
<rect x="459.82" y="33.26" width="47.45" height="84.67" rx="5" fill="#f8ecf1"/>
<rect x="459.82" y="1322.06" width="47.45" height="84.67" rx="5" fill="#f8ecf1"/>
<rect x="549.82" y="33.26" width="47.45" height="84.67" rx="5" fill="#f8ecf1"/>
<rect x="549.82" y="1322.06" width="47.45" height="84.67" rx="5" fill="#f8ecf1"/>
<rect x="639.82" y="33.26" width="47.45" height="84.67" rx="5" fill="#f8ecf1"/>
<rect x="639.82" y="1322.06" width="47.45" height="84.67" rx="5" fill="#f8ecf1"/>
<rect x="729.82" y="33.26" width="47.45" height="84.67" rx="5" fill="#f8ecf1"/>
<rect x="729.82" y="1322.06" width="47.45" height="84.67" rx="5" fill="#f8ecf1"/>
<rect x="819.82" y="33.26" width="47.45" height="84.67" rx="5" fill="#f8ecf1"/>
<rect x="819.82" y="1322.06" width="47.45" height="84.67" rx="5" fill="#f8ecf1"/>
<rect x="909.82" y="33.26" width="47.45" height="84.67" rx="5" fill="#f8ecf1"/>
<rect x="909.82" y="1322.06" width="47.45" height="84.67" rx="5" fill="#f8ecf1"/>
<rect x="999.82" y="33.26" width="47.45" height="84.67" rx="5" fill="#f8ecf1"/>
<rect x="999.82" y="1322.06" width="47.45" height="84.67" rx="5" fill="#f8ecf1"/>
<rect x="54.00" y="54.00" width="972.00" height="1332.00" rx="18" stroke="#ff6fa6" stroke-opacity="0.75" stroke-width="5"/>
</svg>