<svg xmlns="http://www.w3.org/2000/svg" viewBox="0 0 1440 1080" width="1440" height="1080" fill="none">
<rect x="37.80" y="37.80" width="1364.40" height="1004.40" rx="45.36" stroke="#e9397b" stroke-width="13.23"/>
<rect x="75.60" y="75.60" width="1288.80" height="928.80" rx="41.58" stroke="#ffbfd6" stroke-width="6.80"/>
<path d="M 151.63 124.63 L 151.66 124.10 L 151.86 122.51 L 152.41 119.98 L 153.44 116.64 L 155.09 112.69 L 157.45 108.34 L 160.57 103.85 L 164.49 99.48 L 169.18 95.48 L 174.58 92.07 L 180.59 89.46 L 187.09 87.82 L 193.91 87.25 L 200.86 87.81 L 207.75 89.53 L 214.36 92.37 L 220.50 96.23 L 225.96 101.03 L 230.56 106.60 L 234.15 112.81 L 236.62 119.48 L 237.87 126.47 L 237.87 133.62 L 236.62 140.83 L 234.15 147.99 L 230.56 155.02 L 225.96 161.89 L 220.50 168.56 L 214.36 175.04 L 207.75 181.33 L 200.86 187.45 L 193.91 193.42 L 187.09 199.24 L 180.59 204.91 L 174.58 210.42 L 169.18 215.74 L 164.49 220.81 L 160.57 225.56 L 157.45 229.93 L 155.09 233.82 L 153.44 237.15 L 152.41 239.84 L 151.86 241.82 L 151.66 243.03 L 151.63 243.43 L 151.60 243.03 L 151.40 241.82 L 150.86 239.84 L 149.82 237.15 L 148.18 233.82 L 145.82 229.93 L 142.69 225.56 L 138.77 220.81 L 134.09 215.74 L 128.69 210.42 L 122.67 204.91 L 116.17 199.24 L 109.35 193.42 L 102.40 187.45 L 95.51 181.33 L 88.90 175.04 L 82.76 168.56 L 77.31 161.89 L 72.70 155.02 L 69.11 147.99 L 66.64 140.83 L 65.39 133.62 L 65.39 126.47 L 66.64 119.48 L 69.11 112.81 L 72.70 106.60 L 77.31 101.03 L 82.76 96.23 L 88.90 92.37 L 95.51 89.53 L 102.40 87.81 L 109.35 87.25 L 116.17 87.82 L 122.67 89.46 L 128.69 92.07 L 134.09 95.48 L 138.77 99.48 L 142.69 103.85 L 145.82 108.34 L 148.18 112.69 L 149.82 116.64 L 150.86 119.98 L 151.40 122.51 L 151.60 124.10 Z" fill="#ff5f94" fill-opacity="0.85"/>
<path d="M 1288.37 124.63 L 1288.40 124.10 L 1288.60 122.51 L 1289.14 119.98 L 1290.18 116.64 L 1291.82 112.69 L 1294.18 108.34 L 1297.31 103.85 L 1301.23 99.48 L 1305.91 95.48 L 1311.31 92.07 L 1317.33 89.46 L 1323.83 87.82 L 1330.65 87.25 L 1337.60 87.81 L 1344.49 89.53 L 1351.10 92.37 L 1357.24 96.23 L 1362.69 101.03 L 1367.30 106.60 L 1370.89 112.81 L 1373.36 119.48 L 1374.61 126.47 L 1374.61 133.62 L 1373.36 140.83 L 1370.89 147.99 L 1367.30 155.02 L 1362.69 161.89 L 1357.24 168.56 L 1351.10 175.04 L 1344.49 181.33 L 1337.60 187.45 L 1330.65 193.42 L 1323.83 199.24 L 1317.33 204.91 L 1311.31 210.42 L 1305.91 215.74 L 1301.23 220.81 L 1297.31 225.56 L 1294.18 229.93 L 1291.82 233.82 L 1290.18 237.15 L 1289.14 239.84 L 1288.60 241.82 L 1288.40 243.03 L 1288.37 243.43 L 1288.34 243.03 L 1288.14 241.82 L 1287.59 239.84 L 1286.56 237.15 L 1284.91 233.82 L 1282.55 229.93 L 1279.43 225.56 L 1275.51 220.81 L 1270.82 215.74 L 1265.42 210.42 L 1259.41 204.91 L 1252.91 199.24 L 1246.09 193.42 L 1239.14 187.45 L 1232.25 181.33 L 1225.64 175.04 L 1219.50 168.56 L 1214.04 161.89 L 1209.44 155.02 L 1205.85 147.99 L 1203.38 140.83 L 1202.13 133.62 L 1202.13 126.47 L 1203.38 119.48 L 1205.85 112.81 L 1209.44 106.60 L 1214.04 101.03 L 1219.50 96.23 L 1225.64 92.37 L 1232.25 89.53 L 1239.14 87.81 L 1246.09 87.25 L 1252.91 87.82 L 1259.41 89.46 L 1265.42 92.07 L 1270.82 95.48 L 1275.51 99.48 L 1279.43 103.85 L 1282.55 108.34 L 1284.91 112.69 L 1286.56 116.64 L 1287.59 119.98 L 1288.14 122.51 L 1288.34 124.10 Z" fill="#ff5f94" fill-opacity="0.85"/>
<path d="M 151.63 901.37 L 151.66 900.83 L 151.86 899.25 L 152.41 896.72 L 153.44 893.38 L 155.09 889.42 L 157.45 885.08 L 160.57 880.59 L 164.49 876.22 L 169.18 872.21 L 174.58 868.81 L 180.59 866.20 L 187.09 864.55 L 193.91 863.98 L 200.86 864.55 L 207.75 866.27 L 214.36 869.10 L 220.50 872.97 L 225.96 877.76 L 230.56 883.34 L 234.15 889.54 L 236.62 896.22 L 237.87 903.20 L 237.87 910.36 L 236.62 917.57 L 234.15 924.72 L 230.56 931.76 L 225.96 938.62 L 220.50 945.30 L 214.36 951.78 L 207.75 958.07 L 200.86 964.19 L 193.91 970.15 L 187.09 975.97 L 180.59 981.65 L 174.58 987.16 L 169.18 992.47 L 164.49 997.54 L 160.57 1002.30 L 157.45 1006.66 L 155.09 1010.56 L 153.44 1013.89 L 152.41 1016.58 L 151.86 1018.55 L 151.66 1019.76 L 151.63 1020.17 L 151.60 1019.76 L 151.40 1018.55 L 150.86 1016.58 L 149.82 1013.89 L 148.18 1010.56 L 145.82 1006.66 L 142.69 1002.30 L 138.77 997.54 L 134.09 992.47 L 128.69 987.16 L 122.67 981.65 L 116.17 975.97 L 109.35 970.15 L 102.40 964.19 L 95.51 958.07 L 88.90 951.78 L 82.76 945.30 L 77.31 938.62 L 72.70 931.76 L 69.11 924.72 L 66.64 917.57 L 65.39 910.36 L 65.39 903.20 L 66.64 896.22 L 69.11 889.54 L 72.70 883.34 L 77.31 877.76 L 82.76 872.97 L 88.90 869.10 L 95.51 866.27 L 102.40 864.55 L 109.35 863.98 L 116.17 864.55 L 122.67 866.20 L 128.69 868.81 L 134.09 872.21 L 138.77 876.22 L 142.69 880.59 L 145.82 885.08 L 148.18 889.42 L 149.82 893.38 L 150.86 896.72 L 151.40 899.25 L 151.60 900.83 Z" fill="#ff5f94" fill-opacity="0.85"/>
<path d="M 1288.37 901.37 L 1288.40 900.83 L 1288.60 899.25 L 1289.14 896.72 L 1290.18 893.38 L 1291.82 889.42 L 1294.18 885.08 L 1297.31 880.59 L 1301.23 876.22 L 1305.91 872.21 L 1311.31 868.81 L 1317.33 866.20 L 1323.83 864.55 L 1330.65 863.98 L 1337.60 864.55 L 1344.49 866.27 L 1351.10 869.10 L 1357.24 872.97 L 1362.69 877.76 L 1367.30 883.34 L 1370.89 889.54 L 1373.36 896.22 L 1374.61 903.20 L 1374.61 910.36 L 1373.36 917.57 L 1370.89 924.72 L 1367.30 931.76 L 1362.69 938.62 L 1357.24 945.30 L 1351.10 951.78 L 1344.49 958.07 L 1337.60 964.19 L 1330.65 970.15 L 1323.83 975.97 L 1317.33 981.65 L 1311.31 987.16 L 1305.91 992.47 L 1301.23 997.54 L 1297.31 1002.30 L 1294.18 1006.66 L 1291.82 1010.56 L 1290.18 1013.89 L 1289.14 1016.58 L 1288.60 1018.55 L 1288.40 1019.76 L 1288.37 1020.17 L 1288.34 1019.76 L 1288.14 1018.55 L 1287.59 1016.58 L 1286.56 1013.89 L 1284.91 1010.56 L 1282.55 1006.66 L 1279.43 1002.30 L 1275.51 997.54 L 1270.82 992.47 L 1265.42 987.16 L 1259.41 981.65 L 1252.91 975.97 L 1246.09 970.15 L 1239.14 964.19 L 1232.25 958.07 L 1225.64 951.78 L 1219.50 945.30 L 1214.04 938.62 L 1209.44 931.76 L 1205.85 924.72 L 1203.38 917.57 L 1202.13 910.36 L 1202.13 903.20 L 1203.38 896.22 L 1205.85 889.54 L 1209.44 883.34 L 1214.04 877.76 L 1219.50 872.97 L 1225.64 869.10 L 1232.25 866.27 L 1239.14 864.55 L 1246.09 863.98 L 1252.91 864.55 L 1259.41 866.20 L 1265.42 868.81 L 1270.82 872.21 L 1275.51 876.22 L 1279.43 880.59 L 1282.55 885.08 L 1284.91 889.42 L 1286.56 893.38 L 1287.59 896.72 L 1288.14 899.25 L 1288.34 900.83 Z" fill="#ff5f94" fill-opacity="0.85"/>
<path d="M 113.40 68.58 L 113.41 68.46 L 113.45 68.11 L 113.57 67.56 L 113.80 66.82 L 114.16 65.95 L 114.68 65.00 L 115.37 64.01 L 116.23 63.05 L 117.26 62.17 L 118.45 61.42 L 119.77 60.84 L 121.20 60.48 L 122.70 60.36 L 124.23 60.48 L 125.75 60.86 L 127.20 61.48 L 128.55 62.33 L 129.75 63.39 L 130.76 64.61 L 131.55 65.98 L 132.10 67.45 L 132.37 68.98 L 132.37 70.56 L 132.10 72.14 L 131.55 73.72 L 130.76 75.27 L 129.75 76.78 L 128.55 78.24 L 127.20 79.67 L 125.75 81.05 L 124.23 82.40 L 122.70 83.71 L 121.20 84.99 L 119.77 86.24 L 118.45 87.45 L 117.26 88.62 L 116.23 89.74 L 115.37 90.78 L 114.68 91.75 L 114.16 92.60 L 113.80 93.33 L 113.57 93.93 L 113.45 94.36 L 113.41 94.63 L 113.40 94.72 L 113.39 94.63 L 113.35 94.36 L 113.23 93.93 L 113.00 93.33 L 112.64 92.60 L 112.12 91.75 L 111.43 90.78 L 110.57 89.74 L 109.54 88.62 L 108.35 87.45 L 107.03 86.24 L 105.60 84.99 L 104.10 83.71 L 102.57 82.40 L 101.05 81.05 L 99.60 79.67 L 98.25 78.24 L 97.05 76.78 L 96.04 75.27 L 95.25 73.72 L 94.70 72.14 L 94.43 70.56 L 94.43 68.98 L 94.70 67.45 L 95.25 65.98 L 96.04 64.61 L 97.05 63.39 L 98.25 62.33 L 99.60 61.48 L 101.05 60.86 L 102.57 60.48 L 104.10 60.36 L 105.60 60.48 L 107.03 60.84 L 108.35 61.42 L 109.54 62.17 L 110.57 63.05 L 111.43 64.01 L 112.12 65.00 L 112.64 65.95 L 113.00 66.82 L 113.23 67.56 L 113.35 68.11 L 113.39 68.46 Z" fill="#ffa6c5" fill-opacity="0.75"/>
<path d="M 248.20 114.48 L 248.21 114.36 L 248.25 114.01 L 248.37 113.46 L 248.60 112.72 L 248.96 111.85 L 249.48 110.90 L 250.17 109.91 L 251.03 108.95 L 252.06 108.07 L 253.25 107.32 L 254.57 106.74 L 256.00 106.38 L 257.50 106.26 L 259.03 106.38 L 260.55 106.76 L 262.00 107.38 L 263.35 108.23 L 264.55 109.29 L 265.56 110.51 L 266.35 111.88 L 266.90 113.35 L 267.17 114.88 L 267.17 116.46 L 266.90 118.04 L 266.35 119.62 L 265.56 121.17 L 264.55 122.68 L 263.35 124.14 L 262.00 125.57 L 260.55 126.95 L 259.03 128.30 L 257.50 129.61 L 256.00 130.89 L 254.57 132.14 L 253.25 133.35 L 252.06 134.52 L 251.03 135.64 L 250.17 136.68 L 249.48 137.65 L 248.96 138.50 L 248.60 139.23 L 248.37 139.83 L 248.25 140.26 L 248.21 140.53 L 248.20 140.62 L 248.19 140.53 L 248.15 140.26 L 248.03 139.83 L 247.80 139.23 L 247.44 138.50 L 246.92 137.65 L 246.23 136.68 L 245.37 135.64 L 244.34 134.52 L 243.15 133.35 L 241.83 132.14 L 240.40 130.89 L 238.90 129.61 L 237.37 128.30 L 235.85 126.95 L 234.40 125.57 L 233.05 124.14 L 231.85 122.68 L 230.84 121.17 L 230.05 119.62 L 229.50 118.04 L 229.23 116.46 L 229.23 114.88 L 229.50 113.35 L 230.05 111.88 L 230.84 110.51 L 231.85 109.29 L 233.05 108.23 L 234.40 107.38 L 235.85 106.76 L 237.37 106.38 L 238.90 106.26 L 240.40 106.38 L 241.83 106.74 L 243.15 107.32 L 244.34 108.07 L 245.37 108.95 L 246.23 109.91 L 246.92 110.90 L 247.44 111.85 L 247.80 112.72 L 248.03 113.46 L 248.15 114.01 L 248.19 114.36 Z" fill="#ffa6c5" fill-opacity="0.75"/>
<path d="M 383.00 68.58 L 383.01 68.46 L 383.05 68.11 L 383.17 67.56 L 383.40 66.82 L 383.76 65.95 L 384.28 65.00 L 384.97 64.01 L 385.83 63.05 L 386.86 62.17 L 388.05 61.42 L 389.37 60.84 L 390.80 60.48 L 392.30 60.36 L 393.83 60.48 L 395.35 60.86 L 396.80 61.48 L 398.15 62.33 L 399.35 63.39 L 400.36 64.61 L 401.15 65.98 L 401.70 67.45 L 401.97 68.98 L 401.97 70.56 L 401.70 72.14 L 401.15 73.72 L 400.36 75.27 L 399.35 76.78 L 398.15 78.24 L 396.80 79.67 L 395.35 81.05 L 393.83 82.40 L 392.30 83.71 L 390.80 84.99 L 389.37 86.24 L 388.05 87.45 L 386.86 88.62 L 385.83 89.74 L 384.97 90.78 L 384.28 91.75 L 383.76 92.60 L 383.40 93.33 L 383.17 93.93 L 383.05 94.36 L 383.01 94.63 L 383.00 94.72 L 382.99 94.63 L 382.95 94.36 L 382.83 93.93 L 382.60 93.33 L 382.24 92.60 L 381.72 91.75 L 381.03 90.78 L 380.17 89.74 L 379.14 88.62 L 377.95 87.45 L 376.63 86.24 L 375.20 84.99 L 373.70 83.71 L 372.17 82.40 L 370.65 81.05 L 369.20 79.67 L 367.85 78.24 L 366.65 76.78 L 365.64 75.27 L 364.85 73.72 L 364.30 72.14 L 364.03 70.56 L 364.03 68.98 L 364.30 67.45 L 364.85 65.98 L 365.64 64.61 L 366.65 63.39 L 367.85 62.33 L 369.20 61.48 L 370.65 60.86 L 372.17 60.48 L 373.70 60.36 L 375.20 60.48 L 376.63 60.84 L 377.95 61.42 L 379.14 62.17 L 380.17 63.05 L 381.03 64.01 L 381.72 65.00 L 382.24 65.95 L 382.60 66.82 L 382.83 67.56 L 382.95 68.11 L 382.99 68.46 Z" fill="#ffa6c5" fill-opacity="0.75"/>
<path d="M 517.80 114.48 L 517.81 114.36 L 517.85 114.01 L 517.97 113.46 L 518.20 112.72 L 518.56 111.85 L 519.08 110.90 L 519.77 109.91 L 520.63 108.95 L 521.66 108.07 L 522.85 107.32 L 524.17 106.74 L 525.60 106.38 L 527.10 106.26 L 528.63 106.38 L 530.15 106.76 L 531.60 107.38 L 532.95 108.23 L 534.15 109.29 L 535.16 110.51 L 535.95 111.88 L 536.50 113.35 L 536.77 114.88 L 536.77 116.46 L 536.50 118.04 L 535.95 119.62 L 535.16 121.17 L 534.15 122.68 L 532.95 124.14 L 531.60 125.57 L 530.15 126.95 L 528.63 128.30 L 527.10 129.61 L 525.60 130.89 L 524.17 132.14 L 522.85 133.35 L 521.66 134.52 L 520.63 135.64 L 519.77 136.68 L 519.08 137.65 L 518.56 138.50 L 518.20 139.23 L 517.97 139.83 L 517.85 140.26 L 517.81 140.53 L 517.80 140.62 L 517.79 140.53 L 517.75 140.26 L 517.63 139.83 L 517.40 139.23 L 517.04 138.50 L 516.52 137.65 L 515.83 136.68 L 514.97 135.64 L 513.94 134.52 L 512.75 133.35 L 511.43 132.14 L 510.00 130.89 L 508.50 129.61 L 506.97 128.30 L 505.45 126.95 L 504.00 125.57 L 502.65 124.14 L 501.45 122.68 L 500.44 121.17 L 499.65 119.62 L 499.10 118.04 L 498.83 116.46 L 498.83 114.88 L 499.10 113.35 L 499.65 111.88 L 500.44 110.51 L 501.45 109.29 L 502.65 108.23 L 504.00 107.38 L 505.45 106.76 L 506.97 106.38 L 508.50 106.26 L 510.00 106.38 L 511.43 106.74 L 512.75 107.32 L 513.94 108.07 L 514.97 108.95 L 515.83 109.91 L 516.52 110.90 L 517.04 111.85 L 517.40 112.72 L 517.63 113.46 L 517.75 114.01 L 517.79 114.36 Z" fill="#ffa6c5" fill-opacity="0.75"/>
<path d="M 652.60 68.58 L 652.61 68.46 L 652.65 68.11 L 652.77 67.56 L 653.00 66.82 L 653.36 65.95 L 653.88 65.00 L 654.57 64.01 L 655.43 63.05 L 656.46 62.17 L 657.65 61.42 L 658.97 60.84 L 660.40 60.48 L 661.90 60.36 L 663.43 60.48 L 664.95 60.86 L 666.40 61.48 L 667.75 62.33 L 668.95 63.39 L 669.96 64.61 L 670.75 65.98 L 671.30 67.45 L 671.57 68.98 L 671.57 70.56 L 671.30 72.14 L 670.75 73.72 L 669.96 75.27 L 668.95 76.78 L 667.75 78.24 L 666.40 79.67 L 664.95 81.05 L 663.43 82.40 L 661.90 83.71 L 660.40 84.99 L 658.97 86.24 L 657.65 87.45 L 656.46 88.62 L 655.43 89.74 L 654.57 90.78 L 653.88 91.75 L 653.36 92.60 L 653.00 93.33 L 652.77 93.93 L 652.65 94.36 L 652.61 94.63 L 652.60 94.72 L 652.59 94.63 L 652.55 94.36 L 652.43 93.93 L 652.20 93.33 L 651.84 92.60 L 651.32 91.75 L 650.63 90.78 L 649.77 89.74 L 648.74 88.62 L 647.55 87.45 L 646.23 86.24 L 644.80 84.99 L 643.30 83.71 L 641.77 82.40 L 640.25 81.05 L 638.80 79.67 L 637.45 78.24 L 636.25 76.78 L 635.24 75.27 L 634.45 73.72 L 633.90 72.14 L 633.63 70.56 L 633.63 68.98 L 633.90 67.45 L 634.45 65.98 L 635.24 64.61 L 636.25 63.39 L 637.45 62.33 L 638.80 61.48 L 640.25 60.86 L 641.77 60.48 L 643.30 60.36 L 644.80 60.48 L 646.23 60.84 L 647.55 61.42 L 648.74 62.17 L 649.77 63.05 L 650.63 64.01 L 651.32 65.00 L 651.84 65.95 L 652.20 66.82 L 652.43 67.56 L 652.55 68.11 L 652.59 68.46 Z" fill="#ffa6c5" fill-opacity="0.75"/>
<path d="M 787.40 114.48 L 787.41 114.36 L 787.45 114.01 L 787.57 113.46 L 787.80 112.72 L 788.16 111.85 L 788.68 110.90 L 789.37 109.91 L 790.23 108.95 L 791.26 108.07 L 792.45 107.32 L 793.77 106.74 L 795.20 106.38 L 796.70 106.26 L 798.23 106.38 L 799.75 106.76 L 801.20 107.38 L 802.55 108.23 L 803.75 109.29 L 804.76 110.51 L 805.55 111.88 L 806.10 113.35 L 806.37 114.88 L 806.37 116.46 L 806.10 118.04 L 805.55 119.62 L 804.76 121.17 L 803.75 122.68 L 802.55 124.14 L 801.20 125.57 L 799.75 126.95 L 798.23 128.30 L 796.70 129.61 L 795.20 130.89 L 793.77 132.14 L 792.45 133.35 L 791.26 134.52 L 790.23 135.64 L 789.37 136.68 L 788.68 137.65 L 788.16 138.50 L 787.80 139.23 L 787.57 139.83 L 787.45 140.26 L 787.41 140.53 L 787.40 140.62 L 787.39 140.53 L 787.35 140.26 L 787.23 139.83 L 787.00 139.23 L 786.64 138.50 L 786.12 137.65 L 785.43 136.68 L 784.57 135.64 L 783.54 134.52 L 782.35 133.35 L 781.03 132.14 L 779.60 130.89 L 778.10 129.61 L 776.57 128.30 L 775.05 126.95 L 773.60 125.57 L 772.25 124.14 L 771.05 122.68 L 770.04 121.17 L 769.25 119.62 L 768.70 118.04 L 768.43 116.46 L 768.43 114.88 L 768.70 113.35 L 769.25 111.88 L 770.04 110.51 L 771.05 109.29 L 772.25 108.23 L 773.60 107.38 L 775.05 106.76 L 776.57 106.38 L 778.10 106.26 L 779.60 106.38 L 781.03 106.74 L 782.35 107.32 L 783.54 108.07 L 784.57 108.95 L 785.43 109.91 L 786.12 110.90 L 786.64 111.85 L 787.00 112.72 L 787.23 113.46 L 787.35 114.01 L 787.39 114.36 Z" fill="#ffa6c5" fill-opacity="0.75"/>
<path d="M 922.20 68.58 L 922.21 68.46 L 922.25 68.11 L 922.37 67.56 L 922.60 66.82 L 922.96 65.95 L 923.48 65.00 L 924.17 64.01 L 925.03 63.05 L 926.06 62.17 L 927.25 61.42 L 928.57 60.84 L 930.00 60.48 L 931.50 60.36 L 933.03 60.48 L 934.55 60.86 L 936.00 61.48 L 937.35 62.33 L 938.55 63.39 L 939.56 64.61 L 940.35 65.98 L 940.90 67.45 L 941.17 68.98 L 941.17 70.56 L 940.90 72.14 L 940.35 73.72 L 939.56 75.27 L 938.55 76.78 L 937.35 78.24 L 936.00 79.67 L 934.55 81.05 L 933.03 82.40 L 931.50 83.71 L 930.00 84.99 L 928.57 86.24 L 927.25 87.45 L 926.06 88.62 L 925.03 89.74 L 924.17 90.78 L 923.48 91.75 L 922.96 92.60 L 922.60 93.33 L 922.37 93.93 L 922.25 94.36 L 922.21 94.63 L 922.20 94.72 L 922.19 94.63 L 922.15 94.36 L 922.03 93.93 L 921.80 93.33 L 921.44 92.60 L 920.92 91.75 L 920.23 90.78 L 919.37 89.74 L 918.34 88.62 L 917.15 87.45 L 915.83 86.24 L 914.40 84.99 L 912.90 83.71 L 911.37 82.40 L 909.85 81.05 L 908.40 79.67 L 907.05 78.24 L 905.85 76.78 L 904.84 75.27 L 904.05 73.72 L 903.50 72.14 L 903.23 70.56 L 903.23 68.98 L 903.50 67.45 L 904.05 65.98 L 904.84 64.61 L 905.85 63.39 L 907.05 62.33 L 908.40 61.48 L 909.85 60.86 L 911.37 60.48 L 912.90 60.36 L 914.40 60.48 L 915.83 60.84 L 917.15 61.42 L 918.34 62.17 L 919.37 63.05 L 920.23 64.01 L 920.92 65.00 L 921.44 65.95 L 921.80 66.82 L 922.03 67.56 L 922.15 68.11 L 922.19 68.46 Z" fill="#ffa6c5" fill-opacity="0.75"/>
<path d="M 1057.00 114.48 L 1057.01 114.36 L 1057.05 114.01 L 1057.17 113.46 L 1057.40 112.72 L 1057.76 111.85 L 1058.28 110.90 L 1058.97 109.91 L 1059.83 108.95 L 1060.86 108.07 L 1062.05 107.32 L 1063.37 106.74 L 1064.80 106.38 L 1066.30 106.26 L 1067.83 106.38 L 1069.35 106.76 L 1070.80 107.38 L 1072.15 108.23 L 1073.35 109.29 L 1074.36 110.51 L 1075.15 111.88 L 1075.70 113.35 L 1075.97 114.88 L 1075.97 116.46 L 1075.70 118.04 L 1075.15 119.62 L 1074.36 121.17 L 1073.35 122.68 L 1072.15 124.14 L 1070.80 125.57 L 1069.35 126.95 L 1067.83 128.30 L 1066.30 129.61 L 1064.80 130.89 L 1063.37 132.14 L 1062.05 133.35 L 1060.86 134.52 L 1059.83 135.64 L 1058.97 136.68 L 1058.28 137.65 L 1057.76 138.50 L 1057.40 139.23 L 1057.17 139.83 L 1057.05 140.26 L 1057.01 140.53 L 1057.00 140.62 L 1056.99 140.53 L 1056.95 140.26 L 1056.83 139.83 L 1056.60 139.23 L 1056.24 138.50 L 1055.72 137.65 L 1055.03 136.68 L 1054.17 135.64 L 1053.14 134.52 L 1051.95 133.35 L 1050.63 132.14 L 1049.20 130.89 L 1047.70 129.61 L 1046.17 128.30 L 1044.65 126.95 L 1043.20 125.57 L 1041.85 124.14 L 1040.65 122.68 L 1039.64 121.17 L 1038.85 119.62 L 1038.30 118.04 L 1038.03 116.46 L 1038.03 114.88 L 1038.30 113.35 L 1038.85 111.88 L 1039.64 110.51 L 1040.65 109.29 L 1041.85 108.23 L 1043.20 107.38 L 1044.65 106.76 L 1046.17 106.38 L 1047.70 106.26 L 1049.20 106.38 L 1050.63 106.74 L 1051.95 107.32 L 1053.14 108.07 L 1054.17 108.95 L 1055.03 109.91 L 1055.72 110.90 L 1056.24 111.85 L 1056.60 112.72 L 1056.83 113.46 L 1056.95 114.01 L 1056.99 114.36 Z" fill="#ffa6c5" fill-opacity="0.75"/>
<path d="M 1191.80 68.58 L 1191.81 68.46 L 1191.85 68.11 L 1191.97 67.56 L 1192.20 66.82 L 1192.56 65.95 L 1193.08 65.00 L 1193.77 64.01 L 1194.63 63.05 L 1195.66 62.17 L 1196.85 61.42 L 1198.17 60.84 L 1199.60 60.48 L 1201.10 60.36 L 1202.63 60.48 L 1204.15 60.86 L 1205.60 61.48 L 1206.95 62.33 L 1208.15 63.39 L 1209.16 64.61 L 1209.95 65.98 L 1210.50 67.45 L 1210.77 68.98 L 1210.77 70.56 L 1210.50 72.14 L 1209.95 73.72 L 1209.16 75.27 L 1208.15 76.78 L 1206.95 78.24 L 1205.60 79.67 L 1204.15 81.05 L 1202.63 82.40 L 1201.10 83.71 L 1199.60 84.99 L 1198.17 86.24 L 1196.85 87.45 L 1195.66 88.62 L 1194.63 89.74 L 1193.77 90.78 L 1193.08 91.75 L 1192.56 92.60 L 1192.20 93.33 L 1191.97 93.93 L 1191.85 94.36 L 1191.81 94.63 L 1191.80 94.72 L 1191.79 94.63 L 1191.75 94.36 L 1191.63 93.93 L 1191.40 93.33 L 1191.04 92.60 L 1190.52 91.75 L 1189.83 90.78 L 1188.97 89.74 L 1187.94 88.62 L 1186.75 87.45 L 1185.43 86.24 L 1184.00 84.99 L 1182.50 83.71 L 1180.97 82.40 L 1179.45 81.05 L 1178.00 79.67 L 1176.65 78.24 L 1175.45 76.78 L 1174.44 75.27 L 1173.65 73.72 L 1173.10 72.14 L 1172.83 70.56 L 1172.83 68.98 L 1173.10 67.45 L 1173.65 65.98 L 1174.44 64.61 L 1175.45 63.39 L 1176.65 62.33 L 1178.00 61.48 L 1179.45 60.86 L 1180.97 60.48 L 1182.50 60.36 L 1184.00 60.48 L 1185.43 60.84 L 1186.75 61.42 L 1187.94 62.17 L 1188.97 63.05 L 1189.83 64.01 L 1190.52 65.00 L 1191.04 65.95 L 1191.40 66.82 L 1191.63 67.56 L 1191.75 68.11 L 1191.79 68.46 Z" fill="#ffa6c5" fill-opacity="0.75"/>
<path d="M 1326.60 114.48 L 1326.61 114.36 L 1326.65 114.01 L 1326.77 113.46 L 1327.00 112.72 L 1327.36 111.85 L 1327.88 110.90 L 1328.57 109.91 L 1329.43 108.95 L 1330.46 108.07 L 1331.65 107.32 L 1332.97 106.74 L 1334.40 106.38 L 1335.90 106.26 L 1337.43 106.38 L 1338.95 106.76 L 1340.40 107.38 L 1341.75 108.23 L 1342.95 109.29 L 1343.96 110.51 L 1344.75 111.88 L 1345.30 113.35 L 1345.57 114.88 L 1345.57 116.46 L 1345.30 118.04 L 1344.75 119.62 L 1343.96 121.17 L 1342.95 122.68 L 1341.75 124.14 L 1340.40 125.57 L 1338.95 126.95 L 1337.43 128.30 L 1335.90 129.61 L 1334.40 130.89 L 1332.97 132.14 L 1331.65 133.35 L 1330.46 134.52 L 1329.43 135.64 L 1328.57 136.68 L 1327.88 137.65 L 1327.36 138.50 L 1327.00 139.23 L 1326.77 139.83 L 1326.65 140.26 L 1326.61 140.53 L 1326.60 140.62 L 1326.59 140.53 L 1326.55 140.26 L 1326.43 139.83 L 1326.20 139.23 L 1325.84 138.50 L 1325.32 137.65 L 1324.63 136.68 L 1323.77 135.64 L 1322.74 134.52 L 1321.55 133.35 L 1320.23 132.14 L 1318.80 130.89 L 1317.30 129.61 L 1315.77 128.30 L 1314.25 126.95 L 1312.80 125.57 L 1311.45 124.14 L 1310.25 122.68 L 1309.24 121.17 L 1308.45 119.62 L 1307.90 118.04 L 1307.63 116.46 L 1307.63 114.88 L 1307.90 113.35 L 1308.45 111.88 L 1309.24 110.51 L 1310.25 109.29 L 1311.45 108.23 L 1312.80 107.38 L 1314.25 106.76 L 1315.77 106.38 L 1317.30 106.26 L 1318.80 106.38 L 1320.23 106.74 L 1321.55 107.32 L 1322.74 108.07 L 1323.77 108.95 L 1324.63 109.91 L 1325.32 110.90 L 1325.84 111.85 L 1326.20 112.72 L 1326.43 113.46 L 1326.55 114.01 L 1326.59 114.36 Z" fill="#ffa6c5" fill-opacity="0.75"/>
</svg>