<svg xmlns="http://www.w3.org/2000/svg" viewBox="0 0 1440 1080" width="1440" height="1080" fill="none">
<rect x="48.60" y="48.60" width="1342.80" height="982.80" rx="28" stroke="#ff4aa2" stroke-opacity="0.9" stroke-width="10"/>
<rect x="64.60" y="64.60" width="1310.80" height="950.80" rx="24" stroke="#ffb1d5" stroke-opacity="0.9" stroke-width="6"/>
<line x1="54.54" y1="106.92" x2="130.14" y2="106.92" stroke="#ffd2e8" stroke-width="3"/>
<line x1="92.34" y1="69.12" x2="92.34" y2="144.72" stroke="#ffd2e8" stroke-width="3"/>
<line x1="65.88" y1="80.46" x2="118.80" y2="133.38" stroke="#ffd2e8" stroke-width="2"/>
<line x1="65.88" y1="133.38" x2="118.80" y2="80.46" stroke="#ffd2e8" stroke-width="2"/>
<line x1="1299.06" y1="121.50" x2="1396.26" y2="121.50" stroke="#ffd2e8" stroke-width="3"/>
<line x1="1347.66" y1="72.90" x2="1347.66" y2="170.10" stroke="#ffd2e8" stroke-width="3"/>
<line x1="1313.64" y1="87.48" x2="1381.68" y2="155.52" stroke="#ffd2e8" stroke-width="2"/>
<line x1="1313.64" y1="155.52" x2="1381.68" y2="87.48" stroke="#ffd2e8" stroke-width="2"/>
<line x1="78.84" y1="987.66" x2="154.44" y2="987.66" stroke="#ffd2e8" stroke-width="3"/>
<line x1="116.64" y1="949.86" x2="116.64" y2="1025.46" stroke="#ffd2e8" stroke-width="3"/>
<line x1="90.18" y1="961.20" x2="143.10" y2="1014.12" stroke="#ffd2e8" stroke-width="2"/>
<line x1="90.18" y1="1014.12" x2="143.10" y2="961.20" stroke="#ffd2e8" stroke-width="2"/>
<line x1="1284.48" y1="977.94" x2="1381.68" y2="977.94" stroke="#ffd2e8" stroke-width="3"/>
<line x1="1333.08" y1="929.34" x2="1333.08" y2="1026.54" stroke="#ffd2e8" stroke-width="3"/>
<line x1="1299.06" y1="943.92" x2="1367.10" y2="1011.96" stroke="#ffd2e8" stroke-width="2"/>
<line x1="1299.06" y1="1011.96" x2="1367.10" y2="943.92" stroke="#ffd2e8" stroke-width="2"/>
<line x1="682.20" y1="87.48" x2="757.80" y2="87.48" stroke="#ffd2e8" stroke-width="3"/>
<line x1="720.00" y1="49.68" x2="720.00" y2="125.28" stroke="#ffd2e8" stroke-width="3"/>
<line x1="693.54" y1="61.02" x2="746.46" y2="113.94" stroke="#ffd2e8" stroke-width="2"/>
<line x1="693.54" y1="113.94" x2="746.46" y2="61.02" stroke="#ffd2e8" stroke-width="2"/>
<line x1="671.40" y1="992.52" x2="768.60" y2="992.52" stroke="#ffd2e8" stroke-width="3"/>
<line x1="720.00" y1="943.92" x2="720.00" y2="1041.12" stroke="#ffd2e8" stroke-width="3"/>
<line x1="685.98" y1="958.50" x2="754.02" y2="1026.54" stroke="#ffd2e8" stroke-width="2"/>
<line x1="685.98" y1="1026.54" x2="754.02" y2="958.50" stroke="#ffd2e8" stroke-width="2"/>
</svg>