<svg xmlns="http://www.w3.org/2000/svg" viewBox="0 0 1440 1080" width="1440" height="1080" fill="none">
<rect x="41.04" y="41.04" width="1357.92" height="997.92" rx="20" stroke="#94c077" stroke-opacity="0.9" stroke-width="8"/>
<circle cx="87.80" cy="41.04" r="17.82" fill="#ffb9d7" fill-opacity="0.84"/>
<circle cx="71.60" cy="69.10" r="17.82" fill="#ffb9d7" fill-opacity="0.84"/>
<circle cx="39.20" cy="69.10" r="17.82" fill="#ffb9d7" fill-opacity="0.84"/>
<circle cx="23.00" cy="41.04" r="17.82" fill="#ffb9d7" fill-opacity="0.84"/>
<circle cx="39.20" cy="12.98" r="17.82" fill="#ffb9d7" fill-opacity="0.84"/>
<circle cx="71.60" cy="12.98" r="17.82" fill="#ffb9d7" fill-opacity="0.84"/>
<circle cx="55.40" cy="41.04" r="16.20" fill="#faea9b" fill-opacity="0.9"/>
<circle cx="1417.00" cy="41.04" r="17.82" fill="#ffb9d7" fill-opacity="0.84"/>
<circle cx="1400.80" cy="69.10" r="17.82" fill="#ffb9d7" fill-opacity="0.84"/>
<circle cx="1368.40" cy="69.10" r="17.82" fill="#ffb9d7" fill-opacity="0.84"/>
<circle cx="1352.20" cy="41.04" r="17.82" fill="#ffb9d7" fill-opacity="0.84"/>
<circle cx="1368.40" cy="12.98" r="17.82" fill="#ffb9d7" fill-opacity="0.84"/>
<circle cx="1400.80" cy="12.98" r="17.82" fill="#ffb9d7" fill-opacity="0.84"/>
<circle cx="1384.60" cy="41.04" r="16.20" fill="#faea9b" fill-opacity="0.9"/>
<circle cx="100.22" cy="183.60" r="17.82" fill="#ffb9d7" fill-opacity="0.84"/>
<circle cx="84.02" cy="211.66" r="17.82" fill="#ffb9d7" fill-opacity="0.84"/>
<circle cx="51.62" cy="211.66" r="17.82" fill="#ffb9d7" fill-opacity="0.84"/>
<circle cx="35.42" cy="183.60" r="17.82" fill="#ffb9d7" fill-opacity="0.84"/>
<circle cx="51.62" cy="155.54" r="17.82" fill="#ffb9d7" fill-opacity="0.84"/>
<circle cx="84.02" cy="155.54" r="17.82" fill="#ffb9d7" fill-opacity="0.84"/>
<circle cx="67.82" cy="183.60" r="16.20" fill="#faea9b" fill-opacity="0.9"/>
<circle cx="1404.58" cy="183.60" r="17.82" fill="#ffb9d7" fill-opacity="0.84"/>
<circle cx="1388.38" cy="211.66" r="17.82" fill="#ffb9d7" fill-opacity="0.84"/>
<circle cx="1355.98" cy="211.66" r="17.82" fill="#ffb9d7" fill-opacity="0.84"/>
<circle cx="1339.78" cy="183.60" r="17.82" fill="#ffb9d7" fill-opacity="0.84"/>
<circle cx="1355.98" cy="155.54" r="17.82" fill="#ffb9d7" fill-opacity="0.84"/>
<circle cx="1388.38" cy="155.54" r="17.82" fill="#ffb9d7" fill-opacity="0.84"/>
<circle cx="1372.18" cy="183.60" r="16.20" fill="#faea9b" fill-opacity="0.9"/>
<circle cx="107.58" cy="326.16" r="17.82" fill="#ffb9d7" fill-opacity="0.84"/>
<circle cx="91.38" cy="354.22" r="17.82" fill="#ffb9d7" fill-opacity="0.84"/>
<circle cx="58.98" cy="354.22" r="17.82" fill="#ffb9d7" fill-opacity="0.84"/>
<circle cx="42.78" cy="326.16" r="17.82" fill="#ffb9d7" fill-opacity="0.84"/>
<circle cx="58.98" cy="298.10" r="17.82" fill="#ffb9d7" fill-opacity="0.84"/>
<circle cx="91.38" cy="298.10" r="17.82" fill="#ffb9d7" fill-opacity="0.84"/>
<circle cx="75.18" cy="326.16" r="16.20" fill="#faea9b" fill-opacity="0.9"/>
<circle cx="1397.22" cy="326.16" r="17.82" fill="#ffb9d7" fill-opacity="0.84"/>
<circle cx="1381.02" cy="354.22" r="17.82" fill="#ffb9d7" fill-opacity="0.84"/>
<circle cx="1348.62" cy="354.22" r="17.82" fill="#ffb9d7" fill-opacity="0.84"/>
<circle cx="1332.42" cy="326.16" r="17.82" fill="#ffb9d7" fill-opacity="0.84"/>
<circle cx="1348.62" cy="298.10" r="17.82" fill="#ffb9d7" fill-opacity="0.84"/>
<circle cx="1381.02" cy="298.10" r="17.82" fill="#ffb9d7" fill-opacity="0.84"/>
<circle cx="1364.82" cy="326.16" r="16.20" fill="#faea9b" fill-opacity="0.9"/>
<circle cx="106.87" cy="468.72" r="17.82" fill="#ffb9d7" fill-opacity="0.84"/>
<circle cx="90.67" cy="496.78" r="17.82" fill="#ffb9d7" fill-opacity="0.84"/>
<circle cx="58.27" cy="496.78" r="17.82" fill="#ffb9d7" fill-opacity="0.84"/>
<circle cx="42.07" cy="468.72" r="17.82" fill="#ffb9d7" fill-opacity="0.84"/>
<circle cx="58.27" cy="440.66" r="17.82" fill="#ffb9d7" fill-opacity="0.84"/>
<circle cx="90.67" cy="440.66" r="17.82" fill="#ffb9d7" fill-opacity="0.84"/>
<circle cx="74.47" cy="468.72" r="16.20" fill="#faea9b" fill-opacity="0.9"/>
<circle cx="1397.93" cy="468.72" r="17.82" fill="#ffb9d7" fill-opacity="0.84"/>
<circle cx="1381.73" cy="496.78" r="17.82" fill="#ffb9d7" fill-opacity="0.84"/>
<circle cx="1349.33" cy="496.78" r="17.82" fill="#ffb9d7" fill-opacity="0.84"/>
<circle cx="1333.13" cy="468.72" r="17.82" fill="#ffb9d7" fill-opacity="0.84"/>
<circle cx="1349.33" cy="440.66" r="17.82" fill="#ffb9d7" fill-opacity="0.84"/>
<circle cx="1381.73" cy="440.66" r="17.82" fill="#ffb9d7" fill-opacity="0.84"/>
<circle cx="1365.53" cy="468.72" r="16.20" fill="#faea9b" fill-opacity="0.9"/>
<circle cx="98.38" cy="611.28" r="17.82" fill="#ffb9d7" fill-opacity="0.84"/>
<circle cx="82.18" cy="639.34" r="17.82" fill="#ffb9d7" fill-opacity="0.84"/>
<circle cx="49.78" cy="639.34" r="17.82" fill="#ffb9d7" fill-opacity="0.84"/>
<circle cx="33.58" cy="611.28" r="17.82" fill="#ffb9d7" fill-opacity="0.84"/>
<circle cx="49.78" cy="583.22" r="17.82" fill="#ffb9d7" fill-opacity="0.84"/>
<circle cx="82.18" cy="583.22" r="17.82" fill="#ffb9d7" fill-opacity="0.84"/>
<circle cx="65.98" cy="611.28" r="16.20" fill="#faea9b" fill-opacity="0.9"/>
<circle cx="1406.42" cy="611.28" r="17.82" fill="#ffb9d7" fill-opacity="0.84"/>
<circle cx="1390.22" cy="639.34" r="17.82" fill="#ffb9d7" fill-opacity="0.84"/>
<circle cx="1357.82" cy="639.34" r="17.82" fill="#ffb9d7" fill-opacity="0.84"/>
<circle cx="1341.62" cy="611.28" r="17.82" fill="#ffb9d7" fill-opacity="0.84"/>
<circle cx="1357.82" cy="583.22" r="17.82" fill="#ffb9d7" fill-opacity="0.84"/>
<circle cx="1390.22" cy="583.22" r="17.82" fill="#ffb9d7" fill-opacity="0.84"/>
<circle cx="1374.02" cy="611.28" r="16.20" fill="#faea9b" fill-opacity="0.9"/>
<circle cx="85.58" cy="753.84" r="17.82" fill="#ffb9d7" fill-opacity="0.84"/>
<circle cx="69.38" cy="781.90" r="17.82" fill="#ffb9d7" fill-opacity="0.84"/>
<circle cx="36.98" cy="781.90" r="17.82" fill="#ffb9d7" fill-opacity="0.84"/>
<circle cx="20.78" cy="753.84" r="17.82" fill="#ffb9d7" fill-opacity="0.84"/>
<circle cx="36.98" cy="725.78" r="17.82" fill="#ffb9d7" fill-opacity="0.84"/>
<circle cx="69.38" cy="725.78" r="17.82" fill="#ffb9d7" fill-opacity="0.84"/>
<circle cx="53.18" cy="753.84" r="16.20" fill="#faea9b" fill-opacity="0.9"/>
<circle cx="1419.22" cy="753.84" r="17.82" fill="#ffb9d7" fill-opacity="0.84"/>
<circle cx="1403.02" cy="781.90" r="17.82" fill="#ffb9d7" fill-opacity="0.84"/>
<circle cx="1370.62" cy="781.90" r="17.82" fill="#ffb9d7" fill-opacity="0.84"/>
<circle cx="1354.42" cy="753.84" r="17.82" fill="#ffb9d7" fill-opacity="0.84"/>
<circle cx="1370.62" cy="725.78" r="17.82" fill="#ffb9d7" fill-opacity="0.84"/>
<circle cx="1403.02" cy="725.78" r="17.82" fill="#ffb9d7" fill-opacity="0.84"/>
<circle cx="1386.82" cy="753.84" r="16.20" fill="#faea9b" fill-opacity="0.9"/>
<circle cx="73.69" cy="896.40" r="17.82" fill="#ffb9d7" fill-opacity="0.84"/>
<circle cx="57.49" cy="924.46" r="17.82" fill="#ffb9d7" fill-opacity="0.84"/>
<circle cx="25.09" cy="924.46" r="17.82" fill="#ffb9d7" fill-opacity="0.84"/>
<circle cx="8.89" cy="896.40" r="17.82" fill="#ffb9d7" fill-opacity="0.84"/>
<circle cx="25.09" cy="868.34" r="17.82" fill="#ffb9d7" fill-opacity="0.84"/>
<circle cx="57.49" cy="868.34" r="17.82" fill="#ffb9d7" fill-opacity="0.84"/>
<circle cx="41.29" cy="896.40" r="16.20" fill="#faea9b" fill-opacity="0.9"/>
<circle cx="1431.11" cy="896.40" r="17.82" fill="#ffb9d7" fill-opacity="0.84"/>
<circle cx="1414.91" cy="924.46" r="17.82" fill="#ffb9d7" fill-opacity="0.84"/>
<circle cx="1382.51" cy="924.46" r="17.82" fill="#ffb9d7" fill-opacity="0.84"/>
<circle cx="1366.31" cy="896.40" r="17.82" fill="#ffb9d7" fill-opacity="0.84"/>
<circle cx="1382.51" cy="868.34" r="17.82" fill="#ffb9d7" fill-opacity="0.84"/>
<circle cx="1414.91" cy="868.34" r="17.82" fill="#ffb9d7" fill-opacity="0.84"/>
<circle cx="1398.71" cy="896.40" r="16.20" fill="#faea9b" fill-opacity="0.9"/>
<circle cx="67.55" cy="1038.96" r="17.82" fill="#ffb9d7" fill-opacity="0.84"/>
<circle cx="51.35" cy="1067.02" r="17.82" fill="#ffb9d7" fill-opacity="0.84"/>
<circle cx="18.95" cy="1067.02" r="17.82" fill="#ffb9d7" fill-opacity="0.84"/>
<circle cx="2.75" cy="1038.96" r="17.82" fill="#ffb9d7" fill-opacity="0.84"/>
<circle cx="18.95" cy="1010.90" r="17.82" fill="#ffb9d7" fill-opacity="0.84"/>
<circle cx="51.35" cy="1010.90" r="17.82" fill="#ffb9d7" fill-opacity="0.84"/>
<circle cx="35.15" cy="1038.96" r="16.20" fill="#faea9b" fill-opacity="0.9"/>
<circle cx="1437.25" cy="1038.96" r="17.82" fill="#ffb9d7" fill-opacity="0.84"/>
<circle cx="1421.05" cy="1067.02" r="17.82" fill="#ffb9d7" fill-opacity="0.84"/>
<circle cx="1388.65" cy="1067.02" r="17.82" fill="#ffb9d7" fill-opacity="0.84"/>
<circle cx="1372.45" cy="1038.96" r="17.82" fill="#ffb9d7" fill-opacity="0.84"/>
<circle cx="1388.65" cy="1010.90" r="17.82" fill="#ffb9d7" fill-opacity="0.84"/>
<circle cx="1421.05" cy="1010.90" r="17.82" fill="#ffb9d7" fill-opacity="0.84"/>
<circle cx="1404.85" cy="1038.96" r="16.20" fill="#faea9b" fill-opacity="0.9"/>
</svg>